<?xml version="1.0" encoding="UTF-8" standalone="no"?>
<!DOCTYPE svg PUBLIC "-//W3C//DTD SVG 1.1//EN"
 "http://www.w3.org/Graphics/SVG/1.1/DTD/svg11.dtd">
<!-- Generated by graphviz version 2.43.0 (0)
 -->
<!-- Title: %3 Pages: 1 -->
<svg width="884pt" height="499pt"
 viewBox="0.00 0.00 884.44 499.00" xmlns="http://www.w3.org/2000/svg" xmlns:xlink="http://www.w3.org/1999/xlink">
<g id="graph0" class="graph" transform="scale(1 1) rotate(0) translate(4 495)">
<title>%3</title>
<polygon fill="white" stroke="transparent" points="-4,4 -4,-495 880.44,-495 880.44,4 -4,4"/>
<g id="clust1" class="cluster">
<title>cluster_[ne_1]_19</title>
<polygon fill="lightgray" stroke="black" stroke-dasharray="5,2" points="330.44,-166 330.44,-233 430.44,-233 430.44,-166 330.44,-166"/>
<text text-anchor="middle" x="380.44" y="-224.2" font-family="Times,serif" font-size="6.00">Construction: [ne_1]:19</text>
</g>
<g id="clust2" class="cluster">
<title>cluster_[nc_1]_20</title>
<polygon fill="lightgray" stroke="black" stroke-dasharray="5,2" points="563.44,-166 563.44,-333 868.44,-333 868.44,-166 563.44,-166"/>
<text text-anchor="middle" x="715.94" y="-324.2" font-family="Times,serif" font-size="6.00">Construction: [nc_1]:20</text>
</g>
<!-- sent_biology_chapter3_plantkingdom_166 -->
<g id="node1" class="node">
<title>sent_biology_chapter3_plantkingdom_166</title>
<ellipse fill="lightblue" stroke="blue" cx="380.44" cy="-473" rx="226.36" ry="18"/>
<text text-anchor="middle" x="380.44" y="-469.3" font-family="Times,serif" font-size="14.00">Sentence biology_chapter3_plantkingdom_166</text>
</g>
<!-- hE_1&#45;pres_17 -->
<g id="node2" class="node">
<title>hE_1&#45;pres_17</title>
<g id="a_node2"><a xlink:title="semCat: &#45;&#10;morphSem: &#45;&#10;speakersView: &#45;&#10;Additional Info: &#45;">
<ellipse fill="none" stroke="black" cx="380.44" cy="-392" rx="71.49" ry="18"/>
<text text-anchor="middle" x="380.44" y="-388.3" font-family="Times,serif" font-size="14.00">hE_1&#45;pres:17</text>
</a>
</g>
</g>
<!-- sent_biology_chapter3_plantkingdom_166&#45;&gt;hE_1&#45;pres_17 -->
<g id="edge1" class="edge">
<title>sent_biology_chapter3_plantkingdom_166&#45;&gt;hE_1&#45;pres_17</title>
<path fill="none" stroke="black" d="M380.44,-454.86C380.44,-444.71 380.44,-431.63 380.44,-420.12"/>
<polygon fill="black" stroke="black" points="383.94,-420.11 380.44,-410.11 376.94,-420.11 383.94,-420.11"/>
<text text-anchor="middle" x="390.44" y="-430.6" font-family="Times,serif" font-size="8.00">main</text>
</g>
<!-- jimnosparmoM_1_1 -->
<g id="node3" class="node">
<title>jimnosparmoM_1_1</title>
<g id="a_node3"><a xlink:title="semCat: &#45;&#10;morphSem: &#45;&#10;speakersView: &#45;&#10;Additional Info: &#45;">
<ellipse fill="none" stroke="black" cx="99.44" cy="-292" rx="99.38" ry="18"/>
<text text-anchor="middle" x="99.44" y="-288.3" font-family="Times,serif" font-size="14.00">jimnosparmoM_1:1</text>
</a>
</g>
</g>
<!-- hE_1&#45;pres_17&#45;&gt;jimnosparmoM_1_1 -->
<g id="edge2" class="edge">
<title>hE_1&#45;pres_17&#45;&gt;jimnosparmoM_1_1</title>
<path fill="none" stroke="black" d="M338.63,-377.24C303.73,-365.68 252.73,-348.59 208.44,-333 189.42,-326.31 168.63,-318.74 150.34,-312"/>
<polygon fill="black" stroke="black" points="151.35,-308.64 140.76,-308.45 148.92,-315.2 151.35,-308.64"/>
<text text-anchor="middle" x="284.44" y="-344.8" font-family="Times,serif" font-size="14.00" fill="blue">k5</text>
</g>
<!-- eka_1_4 -->
<g id="node4" class="node">
<title>eka_1_4</title>
<g id="a_node4"><a xlink:title="semCat: &#45;&#10;morphSem: &#45;&#10;speakersView: &#45;&#10;Additional Info: &#45;">
<ellipse fill="none" stroke="black" cx="263.44" cy="-292" rx="46.29" ry="18"/>
<text text-anchor="middle" x="263.44" y="-288.3" font-family="Times,serif" font-size="14.00">eka_1:4</text>
</a>
</g>
</g>
<!-- hE_1&#45;pres_17&#45;&gt;eka_1_4 -->
<g id="edge3" class="edge">
<title>hE_1&#45;pres_17&#45;&gt;eka_1_4</title>
<path fill="none" stroke="black" d="M359.27,-374.44C351.98,-368.66 343.81,-362.1 336.44,-356 320.49,-342.78 302.91,-327.63 289,-315.49"/>
<polygon fill="black" stroke="black" points="291.1,-312.68 281.27,-308.74 286.49,-317.95 291.1,-312.68"/>
<text text-anchor="middle" x="356.44" y="-344.8" font-family="Times,serif" font-size="14.00" fill="blue">vmod</text>
</g>
<!-- sikoiyA_9 -->
<g id="node8" class="node">
<title>sikoiyA_9</title>
<g id="a_node8"><a xlink:title="semCat: &#45;&#10;morphSem: &#45;&#10;speakersView: &#45;&#10;Additional Info: &#45;">
<ellipse fill="none" stroke="black" cx="380.44" cy="-292" rx="52.79" ry="18"/>
<text text-anchor="middle" x="380.44" y="-288.3" font-family="Times,serif" font-size="14.00">sikoiyA:9</text>
</a>
</g>
</g>
<!-- hE_1&#45;pres_17&#45;&gt;sikoiyA_9 -->
<g id="edge7" class="edge">
<title>hE_1&#45;pres_17&#45;&gt;sikoiyA_9</title>
<path fill="none" stroke="black" d="M380.44,-373.93C380.44,-359.12 380.44,-337.43 380.44,-320.23"/>
<polygon fill="black" stroke="black" points="383.94,-320.2 380.44,-310.2 376.94,-320.2 383.94,-320.2"/>
<text text-anchor="middle" x="389.44" y="-344.8" font-family="Times,serif" font-size="14.00" fill="blue">k1</text>
</g>
<!-- eka_1_16 -->
<g id="node12" class="node">
<title>eka_1_16</title>
<g id="a_node12"><a xlink:title="semCat: &#45;&#10;morphSem: &#45;&#10;speakersView: &#45;&#10;Additional Info: &#45;">
<ellipse fill="none" stroke="black" cx="503.44" cy="-292" rx="51.99" ry="18"/>
<text text-anchor="middle" x="503.44" y="-288.3" font-family="Times,serif" font-size="14.00">eka_1:16</text>
</a>
</g>
</g>
<!-- hE_1&#45;pres_17&#45;&gt;eka_1_16 -->
<g id="edge11" class="edge">
<title>hE_1&#45;pres_17&#45;&gt;eka_1_16</title>
<path fill="none" stroke="black" d="M401.03,-374.6C421.49,-358.29 453.02,-333.17 475.69,-315.11"/>
<polygon fill="black" stroke="black" points="477.96,-317.78 483.6,-308.81 473.6,-312.3 477.96,-317.78"/>
<text text-anchor="middle" x="453.94" y="-344.8" font-family="Times,serif" font-size="14.00" fill="blue">k1s</text>
</g>
<!-- [nc_1]_20 -->
<g id="node14" class="node">
<title>[nc_1]_20</title>
<g id="a_node14"><a xlink:title="semCat: &#45;&#10;morphSem: &#45;&#10;speakersView: &#45;&#10;Additional Info: &#45;">
<polygon fill="none" stroke="black" points="676.44,-310 594.44,-310 594.44,-274 676.44,-274 676.44,-310"/>
<text text-anchor="middle" x="635.44" y="-288.3" font-family="Times,serif" font-size="14.00">[nc_1]:20</text>
</a>
</g>
</g>
<!-- hE_1&#45;pres_17&#45;&gt;[nc_1]_20 -->
<g id="edge13" class="edge">
<title>hE_1&#45;pres_17&#45;&gt;[nc_1]_20</title>
<path fill="none" stroke="black" d="M429.09,-378.64C466.77,-368.36 519.88,-352.32 564.44,-333 576.1,-327.94 588.32,-321.51 599.28,-315.29"/>
<polygon fill="black" stroke="black" points="601.24,-318.19 608.14,-310.14 597.73,-312.14 601.24,-318.19"/>
<text text-anchor="middle" x="548.44" y="-344.8" font-family="Times,serif" font-size="14.00" fill="blue">k7</text>
</g>
<!-- viSAla_1_6 -->
<g id="node5" class="node">
<title>viSAla_1_6</title>
<g id="a_node5"><a xlink:title="semCat: &#45;&#10;morphSem: &#45;&#10;speakersView: &#45;&#10;Additional Info: &#45;">
<ellipse fill="none" stroke="black" cx="469.44" cy="-18" rx="59.29" ry="18"/>
<text text-anchor="middle" x="469.44" y="-14.3" font-family="Times,serif" font-size="14.00">viSAla_1:6</text>
</a>
</g>
</g>
<!-- redavuda_7 -->
<g id="node6" class="node">
<title>redavuda_7</title>
<g id="a_node6"><a xlink:title="semCat: &#45;&#10;morphSem: &#45;&#10;speakersView: &#45;&#10;Additional Info: &#45;">
<ellipse fill="none" stroke="black" cx="329.44" cy="-105" rx="63.09" ry="18"/>
<text text-anchor="middle" x="329.44" y="-101.3" font-family="Times,serif" font-size="14.00">redavuda:7</text>
</a>
</g>
</g>
<!-- vqkRa_1_8 -->
<g id="node7" class="node">
<title>vqkRa_1_8</title>
<g id="a_node7"><a xlink:title="semCat: &#45;&#10;morphSem: &#45;&#10;speakersView: &#45;&#10;Additional Info: &#45;">
<ellipse fill="none" stroke="black" cx="469.44" cy="-105" rx="58.49" ry="18"/>
<text text-anchor="middle" x="469.44" y="-101.3" font-family="Times,serif" font-size="14.00">vqkRa_1:8</text>
</a>
</g>
</g>
<!-- vqkRa_1_8&#45;&gt;viSAla_1_6 -->
<g id="edge4" class="edge">
<title>vqkRa_1_8&#45;&gt;viSAla_1_6</title>
<path fill="none" stroke="black" d="M469.44,-86.8C469.44,-75.16 469.44,-59.55 469.44,-46.24"/>
<polygon fill="black" stroke="black" points="472.94,-46.18 469.44,-36.18 465.94,-46.18 472.94,-46.18"/>
<text text-anchor="middle" x="484.94" y="-57.8" font-family="Times,serif" font-size="14.00" fill="blue">mod</text>
</g>
<!-- [ne_1]_19 -->
<g id="node13" class="node">
<title>[ne_1]_19</title>
<g id="a_node13"><a xlink:title="semCat: &#45;&#10;morphSem: &#45;&#10;speakersView: &#45;&#10;Additional Info: &#45;">
<polygon fill="none" stroke="black" points="421.94,-210 338.94,-210 338.94,-174 421.94,-174 421.94,-210"/>
<text text-anchor="middle" x="380.44" y="-188.3" font-family="Times,serif" font-size="14.00">[ne_1]:19</text>
</a>
</g>
</g>
<!-- sikoiyA_9&#45;&gt;[ne_1]_19 -->
<g id="edge12" class="edge">
<title>sikoiyA_9&#45;&gt;[ne_1]_19</title>
<path fill="none" stroke="black" d="M380.44,-273.93C380.44,-259.12 380.44,-237.43 380.44,-220.23"/>
<polygon fill="black" stroke="black" points="383.94,-220.2 380.44,-210.2 376.94,-220.2 383.94,-220.2"/>
<text text-anchor="middle" x="395.94" y="-244.8" font-family="Times,serif" font-size="14.00" fill="blue">mod</text>
</g>
<!-- UMce_1_11 -->
<g id="node9" class="node">
<title>UMce_1_11</title>
<g id="a_node9"><a xlink:title="semCat: &#45;&#10;morphSem: superl&#10;speakersView: &#45;&#10;Additional Info: &#45;">
<ellipse fill="none" stroke="black" cx="789.44" cy="-105" rx="63.09" ry="18"/>
<text text-anchor="middle" x="789.44" y="-101.3" font-family="Times,serif" font-size="14.00">UMce_1:11</text>
</a>
</g>
</g>
<!-- vqkRa_1_12 -->
<g id="node10" class="node">
<title>vqkRa_1_12</title>
<g id="a_node10"><a xlink:title="semCat: &#45;&#10;morphSem: &#45;&#10;speakersView: &#45;&#10;Additional Info: &#45;">
<ellipse fill="none" stroke="black" cx="635.44" cy="-192" rx="64.19" ry="18"/>
<text text-anchor="middle" x="635.44" y="-188.3" font-family="Times,serif" font-size="14.00">vqkRa_1:12</text>
</a>
</g>
</g>
<!-- prajAwi_1_13 -->
<g id="node11" class="node">
<title>prajAwi_1_13</title>
<g id="a_node11"><a xlink:title="semCat: &#45;&#10;morphSem: &#45;&#10;speakersView: &#45;&#10;Additional Info: &#45;">
<ellipse fill="none" stroke="black" cx="789.44" cy="-192" rx="71.49" ry="18"/>
<text text-anchor="middle" x="789.44" y="-188.3" font-family="Times,serif" font-size="14.00">prajAwi_1:13</text>
</a>
</g>
</g>
<!-- prajAwi_1_13&#45;&gt;UMce_1_11 -->
<g id="edge8" class="edge">
<title>prajAwi_1_13&#45;&gt;UMce_1_11</title>
<path fill="none" stroke="black" d="M789.44,-173.8C789.44,-162.16 789.44,-146.55 789.44,-133.24"/>
<polygon fill="black" stroke="black" points="792.94,-133.18 789.44,-123.18 785.94,-133.18 792.94,-133.18"/>
<text text-anchor="middle" x="804.94" y="-144.8" font-family="Times,serif" font-size="14.00" fill="blue">mod</text>
</g>
<!-- [ne_1]_19&#45;&gt;redavuda_7 -->
<g id="edge5" class="edge">
<title>[ne_1]_19&#45;&gt;redavuda_7</title>
<path fill="none" stroke="black" d="M370.12,-173.8C362.88,-161.74 353.08,-145.4 344.91,-131.79"/>
<polygon fill="black" stroke="black" points="347.72,-129.66 339.57,-122.89 341.72,-133.26 347.72,-129.66"/>
<text text-anchor="middle" x="377.44" y="-144.8" font-family="Times,serif" font-size="14.00" fill="blue">begin</text>
</g>
<!-- [ne_1]_19&#45;&gt;vqkRa_1_8 -->
<g id="edge6" class="edge">
<title>[ne_1]_19&#45;&gt;vqkRa_1_8</title>
<path fill="none" stroke="black" d="M398.45,-173.8C411.86,-160.99 430.31,-143.37 445.05,-129.3"/>
<polygon fill="black" stroke="black" points="447.55,-131.75 452.36,-122.31 442.71,-126.69 447.55,-131.75"/>
<text text-anchor="middle" x="450.94" y="-144.8" font-family="Times,serif" font-size="14.00" fill="blue">inside</text>
</g>
<!-- [nc_1]_20&#45;&gt;vqkRa_1_12 -->
<g id="edge9" class="edge">
<title>[nc_1]_20&#45;&gt;vqkRa_1_12</title>
<path fill="none" stroke="black" d="M635.44,-273.93C635.44,-259.12 635.44,-237.43 635.44,-220.23"/>
<polygon fill="black" stroke="black" points="638.94,-220.2 635.44,-210.2 631.94,-220.2 638.94,-220.2"/>
<text text-anchor="middle" x="650.94" y="-244.8" font-family="Times,serif" font-size="14.00" fill="blue">mod</text>
</g>
<!-- [nc_1]_20&#45;&gt;prajAwi_1_13 -->
<g id="edge10" class="edge">
<title>[nc_1]_20&#45;&gt;prajAwi_1_13</title>
<path fill="none" stroke="black" d="M662.27,-273.93C688.24,-257.4 727.7,-232.29 755.77,-214.43"/>
<polygon fill="black" stroke="black" points="757.89,-217.22 764.45,-208.9 754.14,-211.32 757.89,-217.22"/>
<text text-anchor="middle" x="729.94" y="-244.8" font-family="Times,serif" font-size="14.00" fill="blue">head</text>
</g>
</g>
</svg>
