<?xml version="1.0" encoding="UTF-8" standalone="no"?>
<!DOCTYPE svg PUBLIC "-//W3C//DTD SVG 1.1//EN"
 "http://www.w3.org/Graphics/SVG/1.1/DTD/svg11.dtd">
<!-- Generated by graphviz version 2.43.0 (0)
 -->
<!-- Title: %3 Pages: 1 -->
<svg width="3227pt" height="989pt"
 viewBox="0.00 0.00 3227.00 989.00" xmlns="http://www.w3.org/2000/svg" xmlns:xlink="http://www.w3.org/1999/xlink">
<g id="graph0" class="graph" transform="scale(1 1) rotate(0) translate(4 985)">
<title>%3</title>
<polygon fill="white" stroke="transparent" points="-4,4 -4,-985 3223,-985 3223,4 -4,4"/>
<g id="clust1" class="cluster">
<title>cluster_[conj_1]_23</title>
<polygon fill="lightgray" stroke="black" stroke-dasharray="5,2" points="8,-382 8,-549 526,-549 526,-382 8,-382"/>
<text text-anchor="middle" x="267" y="-540.2" font-family="Times,serif" font-size="6.00">Construction: [conj_1]:23</text>
</g>
<g id="clust2" class="cluster">
<title>cluster_[disjunct_1]_25</title>
<polygon fill="lightgray" stroke="black" stroke-dasharray="5,2" points="995,-582 995,-736 1199,-736 1199,-582 995,-582"/>
<text text-anchor="middle" x="1097" y="-727.2" font-family="Times,serif" font-size="6.00">Construction: [disjunct_1]:25</text>
</g>
<g id="clust3" class="cluster">
<title>cluster_[conj_2]_29</title>
<polygon fill="lightgray" stroke="black" stroke-dasharray="5,2" points="2207,-95 2207,-262 2705,-262 2705,-95 2207,-95"/>
<text text-anchor="middle" x="2456" y="-253.2" font-family="Times,serif" font-size="6.00">Construction: [conj_2]:29</text>
</g>
<g id="clust4" class="cluster">
<title>cluster_[conj_1]_31</title>
<polygon fill="lightgray" stroke="black" stroke-dasharray="5,2" points="1378,-8 1378,-162 2199,-162 2199,-8 1378,-8"/>
<text text-anchor="middle" x="1788.5" y="-153.2" font-family="Times,serif" font-size="6.00">Construction: [conj_1]:31</text>
</g>
<g id="clust5" class="cluster">
<title>cluster_[conj_4]_32</title>
<polygon fill="lightgray" stroke="black" stroke-dasharray="5,2" points="1742,-295 1742,-449 2154,-449 2154,-295 1742,-295"/>
<text text-anchor="middle" x="1948" y="-440.2" font-family="Times,serif" font-size="6.00">Construction: [conj_4]:32</text>
</g>
<g id="clust6" class="cluster">
<title>cluster_[conj_3]_37</title>
<polygon fill="lightgray" stroke="black" stroke-dasharray="5,2" points="2713,-195 2713,-262 3211,-262 3211,-195 2713,-195"/>
<text text-anchor="middle" x="2962" y="-253.2" font-family="Times,serif" font-size="6.00">Construction: [conj_3]:37</text>
</g>
<!-- sent_chapter_1_living_world_005 -->
<g id="node1" class="node">
<title>sent_chapter_1_living_world_005</title>
<ellipse fill="lightblue" stroke="blue" cx="810" cy="-963" rx="185.47" ry="18"/>
<text text-anchor="middle" x="810" y="-959.3" font-family="Times,serif" font-size="14.00">Sentence chapter_1_living_world_005</text>
</g>
<!-- hE_1(state_copula_1)&#45;past_21 -->
<g id="node2" class="node">
<title>hE_1(state_copula_1)&#45;past_21</title>
<g id="a_node2"><a xlink:title="semCat: &#45;&#10;morphSem: &#45;&#10;speakersView: &#45;&#10;Additional Info: &#45;">
<ellipse fill="none" stroke="black" cx="810" cy="-882" rx="146.47" ry="18"/>
<text text-anchor="middle" x="810" y="-878.3" font-family="Times,serif" font-size="14.00">hE_1(state_copula_1)&#45;past:21</text>
</a>
</g>
</g>
<!-- sent_chapter_1_living_world_005&#45;&gt;hE_1(state_copula_1)&#45;past_21 -->
<g id="edge1" class="edge">
<title>sent_chapter_1_living_world_005&#45;&gt;hE_1(state_copula_1)&#45;past_21</title>
<path fill="none" stroke="black" d="M810,-944.86C810,-934.71 810,-921.63 810,-910.12"/>
<polygon fill="black" stroke="black" points="813.5,-910.11 810,-900.11 806.5,-910.11 813.5,-910.11"/>
<text text-anchor="middle" x="820" y="-920.6" font-family="Times,serif" font-size="8.00">main</text>
</g>
<!-- viSeRawA_7(feature_8)_12 -->
<g id="node11" class="node">
<title>viSeRawA_7(feature_8)_12</title>
<g id="a_node11"><a xlink:title="semCat: &#45;&#10;morphSem: &#45;&#10;speakersView: &#45;&#10;Additional Info: &#45;">
<ellipse fill="none" stroke="black" cx="675" cy="-795" rx="132.68" ry="18"/>
<text text-anchor="middle" x="675" y="-791.3" font-family="Times,serif" font-size="14.00">viSeRawA_7(feature_8):12</text>
</a>
</g>
</g>
<!-- hE_1(state_copula_1)&#45;past_21&#45;&gt;viSeRawA_7(feature_8)_12 -->
<g id="edge10" class="edge">
<title>hE_1(state_copula_1)&#45;past_21&#45;&gt;viSeRawA_7(feature_8)_12</title>
<path fill="none" stroke="black" d="M783.33,-864.21C762.43,-851.05 733.18,-832.63 710.34,-818.25"/>
<polygon fill="black" stroke="black" points="711.94,-815.12 701.62,-812.76 708.21,-821.05 711.94,-815.12"/>
<text text-anchor="middle" x="760" y="-834.8" font-family="Times,serif" font-size="14.00" fill="blue">k1</text>
</g>
<!-- BAvanA_2(feeling_3)_20 -->
<g id="node16" class="node">
<title>BAvanA_2(feeling_3)_20</title>
<g id="a_node16"><a xlink:title="semCat: &#45;&#10;morphSem: &#45;&#10;speakersView: def&#10;Additional Info: &#45;">
<ellipse fill="none" stroke="black" cx="951" cy="-795" rx="120.48" ry="18"/>
<text text-anchor="middle" x="951" y="-791.3" font-family="Times,serif" font-size="14.00">BAvanA_2(feeling_3):20</text>
</a>
</g>
</g>
<!-- hE_1(state_copula_1)&#45;past_21&#45;&gt;BAvanA_2(feeling_3)_20 -->
<g id="edge14" class="edge">
<title>hE_1(state_copula_1)&#45;past_21&#45;&gt;BAvanA_2(feeling_3)_20</title>
<path fill="none" stroke="black" d="M837.86,-864.21C859.78,-850.99 890.5,-832.47 914.41,-818.06"/>
<polygon fill="black" stroke="black" points="916.44,-820.92 923.2,-812.76 912.83,-814.92 916.44,-820.92"/>
<text text-anchor="middle" x="901.5" y="-834.8" font-family="Times,serif" font-size="14.00" fill="blue">k1s</text>
</g>
<!-- nirjIva_2(inanimate_2)_1 -->
<g id="node3" class="node">
<title>nirjIva_2(inanimate_2)_1</title>
<g id="a_node3"><a xlink:title="semCat: &#45;&#10;morphSem: &#45;&#10;speakersView: &#45;&#10;Additional Info: &#45;">
<ellipse fill="none" stroke="black" cx="139" cy="-408" rx="123.48" ry="18"/>
<text text-anchor="middle" x="139" y="-404.3" font-family="Times,serif" font-size="14.00">nirjIva_2(inanimate_2):1</text>
</a>
</g>
</g>
<!-- cewana_1(animate_1)_3 -->
<g id="node4" class="node">
<title>cewana_1(animate_1)_3</title>
<g id="a_node4"><a xlink:title="semCat: &#45;&#10;morphSem: &#45;&#10;speakersView: &#45;&#10;Additional Info: &#45;">
<ellipse fill="none" stroke="black" cx="399" cy="-408" rx="118.88" ry="18"/>
<text text-anchor="middle" x="399" y="-404.3" font-family="Times,serif" font-size="14.00">cewana_1(animate_1):3</text>
</a>
</g>
</g>
<!-- vaswu_3(object_7)_4 -->
<g id="node5" class="node">
<title>vaswu_3(object_7)_4</title>
<g id="a_node5"><a xlink:title="semCat: &#45;&#10;morphSem: pl&#10;speakersView: &#45;&#10;Additional Info: &#45;">
<ellipse fill="none" stroke="black" cx="234" cy="-608" rx="104.78" ry="18"/>
<text text-anchor="middle" x="234" y="-604.3" font-family="Times,serif" font-size="14.00">vaswu_3(object_7):4</text>
</a>
</g>
</g>
<!-- [conj_1]_23 -->
<g id="node17" class="node">
<title>[conj_1]_23</title>
<g id="a_node17"><a xlink:title="semCat: &#45;&#10;morphSem: &#45;&#10;speakersView: &#45;&#10;Additional Info: &#45;">
<polygon fill="none" stroke="black" points="281.5,-526 186.5,-526 186.5,-490 281.5,-490 281.5,-526"/>
<text text-anchor="middle" x="234" y="-504.3" font-family="Times,serif" font-size="14.00">[conj_1]:23</text>
</a>
</g>
</g>
<!-- vaswu_3(object_7)_4&#45;&gt;[conj_1]_23 -->
<g id="edge15" class="edge">
<title>vaswu_3(object_7)_4&#45;&gt;[conj_1]_23</title>
<path fill="none" stroke="black" d="M234,-589.93C234,-575.12 234,-553.43 234,-536.23"/>
<polygon fill="black" stroke="black" points="237.5,-536.2 234,-526.2 230.5,-536.2 237.5,-536.2"/>
<text text-anchor="middle" x="249.5" y="-560.8" font-family="Times,serif" font-size="14.00" fill="blue">mod</text>
</g>
<!-- $wyax_6 -->
<g id="node6" class="node">
<title>$wyax_6</title>
<g id="a_node6"><a xlink:title="semCat: &#45;&#10;morphSem: &#45;&#10;speakersView: proximal&#10;Additional Info: &#45;">
<ellipse fill="none" stroke="black" cx="642" cy="-508" rx="49.29" ry="18"/>
<text text-anchor="middle" x="642" y="-504.3" font-family="Times,serif" font-size="14.00">$wyax:6</text>
</a>
</g>
</g>
<!-- saBI_1(all_1)_7 -->
<g id="node7" class="node">
<title>saBI_1(all_1)_7</title>
<g id="a_node7"><a xlink:title="semCat: &#45;&#10;morphSem: &#45;&#10;speakersView: &#45;&#10;Additional Info: &#45;">
<ellipse fill="none" stroke="black" cx="435" cy="-608" rx="78.79" ry="18"/>
<text text-anchor="middle" x="435" y="-604.3" font-family="Times,serif" font-size="14.00">saBI_1(all_1):7</text>
</a>
</g>
</g>
<!-- rUpa_1(form_10)_8 -->
<g id="node8" class="node">
<title>rUpa_1(form_10)_8</title>
<g id="a_node8"><a xlink:title="semCat: &#45;&#10;morphSem: pl&#10;speakersView: &#45;&#10;Additional Info: &#45;">
<ellipse fill="none" stroke="black" cx="435" cy="-695" rx="98.28" ry="18"/>
<text text-anchor="middle" x="435" y="-691.3" font-family="Times,serif" font-size="14.00">rUpa_1(form_10):8</text>
</a>
</g>
</g>
<!-- rUpa_1(form_10)_8&#45;&gt;vaswu_3(object_7)_4 -->
<g id="edge4" class="edge">
<title>rUpa_1(form_10)_8&#45;&gt;vaswu_3(object_7)_4</title>
<path fill="none" stroke="black" d="M397.66,-678.21C364.63,-664.24 316.28,-643.79 280.69,-628.74"/>
<polygon fill="black" stroke="black" points="282.05,-625.52 271.48,-624.85 279.32,-631.97 282.05,-625.52"/>
<text text-anchor="middle" x="355" y="-647.8" font-family="Times,serif" font-size="14.00" fill="blue">r6</text>
</g>
<!-- rUpa_1(form_10)_8&#45;&gt;saBI_1(all_1)_7 -->
<g id="edge6" class="edge">
<title>rUpa_1(form_10)_8&#45;&gt;saBI_1(all_1)_7</title>
<path fill="none" stroke="black" d="M435,-676.8C435,-665.16 435,-649.55 435,-636.24"/>
<polygon fill="black" stroke="black" points="438.5,-636.18 435,-626.18 431.5,-636.18 438.5,-636.18"/>
<text text-anchor="middle" x="456" y="-647.8" font-family="Times,serif" font-size="14.00" fill="blue">quant</text>
</g>
<!-- prakAra_7(type_6)_24 -->
<g id="node18" class="node">
<title>prakAra_7(type_6)_24</title>
<g id="a_node18"><a xlink:title="semCat: &#45;&#10;morphSem: &#45;&#10;speakersView: &#45;&#10;Additional Info: &#45;">
<ellipse fill="none" stroke="black" cx="642" cy="-608" rx="110.48" ry="18"/>
<text text-anchor="middle" x="642" y="-604.3" font-family="Times,serif" font-size="14.00">prakAra_7(type_6):24</text>
</a>
</g>
</g>
<!-- rUpa_1(form_10)_8&#45;&gt;prakAra_7(type_6)_24 -->
<g id="edge16" class="edge">
<title>rUpa_1(form_10)_8&#45;&gt;prakAra_7(type_6)_24</title>
<path fill="none" stroke="black" d="M473.45,-678.21C507.37,-664.28 556.95,-643.92 593.57,-628.89"/>
<polygon fill="black" stroke="black" points="595.13,-632.03 603.05,-624.99 592.47,-625.55 595.13,-632.03"/>
<text text-anchor="middle" x="559" y="-647.8" font-family="Times,serif" font-size="14.00" fill="blue">r6</text>
</g>
<!-- eka_2(a_1)_10 -->
<g id="node9" class="node">
<title>eka_2(a_1)_10</title>
<g id="a_node9"><a xlink:title="semCat: &#45;&#10;morphSem: &#45;&#10;speakersView: &#45;&#10;Additional Info: &#45;">
<ellipse fill="none" stroke="black" cx="625" cy="-695" rx="74.19" ry="18"/>
<text text-anchor="middle" x="625" y="-691.3" font-family="Times,serif" font-size="14.00">eka_2(a_1):10</text>
</a>
</g>
</g>
<!-- sAmAnya_2(common_6)_11 -->
<g id="node10" class="node">
<title>sAmAnya_2(common_6)_11</title>
<g id="a_node10"><a xlink:title="semCat: &#45;&#10;morphSem: &#45;&#10;speakersView: &#45;&#10;Additional Info: &#45;">
<ellipse fill="none" stroke="black" cx="852" cy="-695" rx="134.58" ry="18"/>
<text text-anchor="middle" x="852" y="-691.3" font-family="Times,serif" font-size="14.00">sAmAnya_2(common_6):11</text>
</a>
</g>
</g>
<!-- viSeRawA_7(feature_8)_12&#45;&gt;rUpa_1(form_10)_8 -->
<g id="edge7" class="edge">
<title>viSeRawA_7(feature_8)_12&#45;&gt;rUpa_1(form_10)_8</title>
<path fill="none" stroke="black" d="M635.37,-777.82C593.57,-760.75 527.69,-733.85 482.98,-715.59"/>
<polygon fill="black" stroke="black" points="484.08,-712.26 473.5,-711.72 481.43,-718.74 484.08,-712.26"/>
<text text-anchor="middle" x="592" y="-747.8" font-family="Times,serif" font-size="14.00" fill="blue">r6</text>
</g>
<!-- viSeRawA_7(feature_8)_12&#45;&gt;eka_2(a_1)_10 -->
<g id="edge8" class="edge">
<title>viSeRawA_7(feature_8)_12&#45;&gt;eka_2(a_1)_10</title>
<path fill="none" stroke="black" d="M666.29,-776.93C658.59,-761.85 647.25,-739.61 638.4,-722.26"/>
<polygon fill="black" stroke="black" points="641.44,-720.52 633.78,-713.2 635.2,-723.7 641.44,-720.52"/>
<text text-anchor="middle" x="677" y="-747.8" font-family="Times,serif" font-size="14.00" fill="blue">quant</text>
</g>
<!-- viSeRawA_7(feature_8)_12&#45;&gt;sAmAnya_2(common_6)_11 -->
<g id="edge9" class="edge">
<title>viSeRawA_7(feature_8)_12&#45;&gt;sAmAnya_2(common_6)_11</title>
<path fill="none" stroke="black" d="M705.03,-777.38C734.78,-760.9 780.49,-735.6 813.02,-717.58"/>
<polygon fill="black" stroke="black" points="814.77,-720.61 821.83,-712.71 811.38,-714.49 814.77,-720.61"/>
<text text-anchor="middle" x="779.5" y="-747.8" font-family="Times,serif" font-size="14.00" fill="blue">mod</text>
</g>
<!-- $wyax_13 -->
<g id="node12" class="node">
<title>$wyax_13</title>
<g id="a_node12"><a xlink:title="semCat: &#45;&#10;morphSem: &#45;&#10;speakersView: distal&#10;Additional Info: chapter_1_living_world_004.2:coref">
<ellipse fill="none" stroke="black" cx="1369" cy="-508" rx="55.49" ry="18"/>
<text text-anchor="middle" x="1369" y="-504.3" font-family="Times,serif" font-size="14.00">$wyax:13</text>
</a>
</g>
</g>
<!-- manuRya_1(man_7)_2 -->
<g id="node20" class="node">
<title>manuRya_1(man_7)_2</title>
<g id="a_node20"><a xlink:title="semCat: anim&#10;morphSem: &#45;&#10;speakersView: &#45;&#10;Additional Info: &#45;">
<ellipse fill="none" stroke="black" cx="1375" cy="-408" rx="110.48" ry="18"/>
<text text-anchor="middle" x="1375" y="-404.3" font-family="Times,serif" font-size="14.00">manuRya_1(man_7):2</text>
</a>
</g>
</g>
<!-- $wyax_13&#45;&gt;manuRya_1(man_7)_2 -->
<g id="edge18" class="edge">
<title>$wyax_13&#45;&gt;manuRya_1(man_7)_2</title>
<path fill="none" stroke="red" d="M1370.05,-489.93C1370.95,-475.12 1372.28,-453.43 1373.33,-436.23"/>
<polygon fill="red" stroke="red" points="1376.83,-436.4 1373.95,-426.2 1369.84,-435.97 1376.83,-436.4"/>
<text text-anchor="middle" x="1390.5" y="-460.8" font-family="Times,serif" font-size="14.00" fill="red">coref</text>
</g>
<!-- uwpanna_1(produced_1)_15 -->
<g id="node13" class="node">
<title>uwpanna_1(produced_1)_15</title>
<g id="a_node13"><a xlink:title="semCat: &#45;&#10;morphSem: &#45;&#10;speakersView: &#45;&#10;Additional Info: &#45;">
<ellipse fill="none" stroke="black" cx="1347" cy="-608" rx="137.58" ry="18"/>
<text text-anchor="middle" x="1347" y="-604.3" font-family="Times,serif" font-size="14.00">uwpanna_1(produced_1):15</text>
</a>
</g>
</g>
<!-- uwpanna_1(produced_1)_15&#45;&gt;$wyax_13 -->
<g id="edge11" class="edge">
<title>uwpanna_1(produced_1)_15&#45;&gt;$wyax_13</title>
<path fill="none" stroke="black" d="M1350.83,-589.93C1354.16,-575.12 1359.03,-553.43 1362.89,-536.23"/>
<polygon fill="black" stroke="black" points="1366.36,-536.73 1365.14,-526.2 1359.53,-535.19 1366.36,-536.73"/>
<text text-anchor="middle" x="1367" y="-560.8" font-family="Times,serif" font-size="14.00" fill="blue">k3</text>
</g>
<!-- vismaya_6_16 -->
<g id="node14" class="node">
<title>vismaya_6_16</title>
<g id="a_node14"><a xlink:title="semCat: &#45;&#10;morphSem: &#45;&#10;speakersView: &#45;&#10;Additional Info: &#45;">
<ellipse fill="none" stroke="black" cx="1087" cy="-963" rx="73.39" ry="18"/>
<text text-anchor="middle" x="1087" y="-959.3" font-family="Times,serif" font-size="14.00">vismaya_6:16</text>
</a>
</g>
</g>
<!-- Baya_1(fear_5)_18 -->
<g id="node15" class="node">
<title>Baya_1(fear_5)_18</title>
<g id="a_node15"><a xlink:title="semCat: &#45;&#10;morphSem: &#45;&#10;speakersView: &#45;&#10;Additional Info: &#45;">
<ellipse fill="none" stroke="black" cx="1097" cy="-608" rx="94.48" ry="18"/>
<text text-anchor="middle" x="1097" y="-604.3" font-family="Times,serif" font-size="14.00">Baya_1(fear_5):18</text>
</a>
</g>
</g>
<!-- [disjunct_1]_25 -->
<g id="node19" class="node">
<title>[disjunct_1]_25</title>
<g id="a_node19"><a xlink:title="semCat: &#45;&#10;morphSem: &#45;&#10;speakersView: &#45;&#10;Additional Info: &#45;">
<polygon fill="none" stroke="black" points="1158,-713 1036,-713 1036,-677 1158,-677 1158,-713"/>
<text text-anchor="middle" x="1097" y="-691.3" font-family="Times,serif" font-size="14.00">[disjunct_1]:25</text>
</a>
</g>
</g>
<!-- BAvanA_2(feeling_3)_20&#45;&gt;[disjunct_1]_25 -->
<g id="edge17" class="edge">
<title>BAvanA_2(feeling_3)_20&#45;&gt;[disjunct_1]_25</title>
<path fill="none" stroke="black" d="M975.77,-777.38C999.74,-761.28 1036.28,-736.76 1062.98,-718.84"/>
<polygon fill="black" stroke="black" points="1065.27,-721.51 1071.62,-713.04 1061.37,-715.7 1065.27,-721.51"/>
<text text-anchor="middle" x="1032" y="-747.8" font-family="Times,serif" font-size="14.00" fill="blue">r6</text>
</g>
<!-- [conj_1]_23&#45;&gt;nirjIva_2(inanimate_2)_1 -->
<g id="edge2" class="edge">
<title>[conj_1]_23&#45;&gt;nirjIva_2(inanimate_2)_1</title>
<path fill="none" stroke="black" d="M217.45,-489.93C202.33,-474.33 179.8,-451.09 162.76,-433.51"/>
<polygon fill="black" stroke="black" points="164.83,-430.62 155.36,-425.87 159.81,-435.49 164.83,-430.62"/>
<text text-anchor="middle" x="211.5" y="-460.8" font-family="Times,serif" font-size="14.00" fill="blue">op1</text>
</g>
<!-- [conj_1]_23&#45;&gt;cewana_1(animate_1)_3 -->
<g id="edge3" class="edge">
<title>[conj_1]_23&#45;&gt;cewana_1(animate_1)_3</title>
<path fill="none" stroke="black" d="M262.74,-489.93C290.35,-473.53 332.2,-448.68 362.23,-430.84"/>
<polygon fill="black" stroke="black" points="364.33,-433.66 371.14,-425.55 360.75,-427.65 364.33,-433.66"/>
<text text-anchor="middle" x="330.5" y="-460.8" font-family="Times,serif" font-size="14.00" fill="blue">op2</text>
</g>
<!-- prakAra_7(type_6)_24&#45;&gt;$wyax_6 -->
<g id="edge5" class="edge">
<title>prakAra_7(type_6)_24&#45;&gt;$wyax_6</title>
<path fill="none" stroke="black" d="M642,-589.93C642,-575.12 642,-553.43 642,-536.23"/>
<polygon fill="black" stroke="black" points="645.5,-536.2 642,-526.2 638.5,-536.2 645.5,-536.2"/>
<text text-anchor="middle" x="657.5" y="-560.8" font-family="Times,serif" font-size="14.00" fill="blue">dem</text>
</g>
<!-- [disjunct_1]_25&#45;&gt;uwpanna_1(produced_1)_15 -->
<g id="edge12" class="edge">
<title>[disjunct_1]_25&#45;&gt;uwpanna_1(produced_1)_15</title>
<path fill="none" stroke="black" d="M1147.29,-676.9C1188.65,-662.84 1247.24,-642.92 1290.27,-628.29"/>
<polygon fill="black" stroke="black" points="1291.41,-631.6 1299.75,-625.06 1289.16,-624.97 1291.41,-631.6"/>
<text text-anchor="middle" x="1252.5" y="-647.8" font-family="Times,serif" font-size="14.00" fill="blue">rvks</text>
</g>
<!-- [disjunct_1]_25&#45;&gt;Baya_1(fear_5)_18 -->
<g id="edge13" class="edge">
<title>[disjunct_1]_25&#45;&gt;Baya_1(fear_5)_18</title>
<path fill="none" stroke="black" d="M1097,-676.8C1097,-665.16 1097,-649.55 1097,-636.24"/>
<polygon fill="black" stroke="black" points="1100.5,-636.18 1097,-626.18 1093.5,-636.18 1100.5,-636.18"/>
<text text-anchor="middle" x="1110.5" y="-647.8" font-family="Times,serif" font-size="14.00" fill="blue">op2</text>
</g>
<!-- AraMBika_9_1 -->
<g id="node23" class="node">
<title>AraMBika_9_1</title>
<g id="a_node23"><a xlink:title="semCat: &#45;&#10;morphSem: &#45;&#10;speakersView: &#45;&#10;Additional Info: &#45;">
<ellipse fill="none" stroke="black" cx="1375" cy="-321" rx="75.29" ry="18"/>
<text text-anchor="middle" x="1375" y="-317.3" font-family="Times,serif" font-size="14.00">AraMBika_9:1</text>
</a>
</g>
</g>
<!-- manuRya_1(man_7)_2&#45;&gt;AraMBika_9_1 -->
<g id="edge20" class="edge">
<title>manuRya_1(man_7)_2&#45;&gt;AraMBika_9_1</title>
<path fill="none" stroke="black" d="M1375,-389.8C1375,-378.16 1375,-362.55 1375,-349.24"/>
<polygon fill="black" stroke="black" points="1378.5,-349.18 1375,-339.18 1371.5,-349.18 1378.5,-349.18"/>
<text text-anchor="middle" x="1390.5" y="-360.8" font-family="Times,serif" font-size="14.00" fill="blue">mod</text>
</g>
<!-- sent_chapter_1_living_world_004 -->
<g id="node21" class="node">
<title>sent_chapter_1_living_world_004</title>
<ellipse fill="lightblue" stroke="blue" cx="1688" cy="-608" rx="185.47" ry="18"/>
<text text-anchor="middle" x="1688" y="-604.3" font-family="Times,serif" font-size="14.00">Sentence chapter_1_living_world_004</text>
</g>
<!-- banA_10(do_3)&#45;yA_WA_1(en_had_1)_28 -->
<g id="node22" class="node">
<title>banA_10(do_3)&#45;yA_WA_1(en_had_1)_28</title>
<g id="a_node22"><a xlink:title="semCat: &#45;&#10;morphSem: &#45;&#10;speakersView: &#45;&#10;Additional Info: &#45;">
<ellipse fill="none" stroke="black" cx="1668" cy="-508" rx="187.37" ry="18"/>
<text text-anchor="middle" x="1668" y="-504.3" font-family="Times,serif" font-size="14.00">banA_10(do_3)&#45;yA_WA_1(en_had_1):28</text>
</a>
</g>
</g>
<!-- sent_chapter_1_living_world_004&#45;&gt;banA_10(do_3)&#45;yA_WA_1(en_had_1)_28 -->
<g id="edge19" class="edge">
<title>sent_chapter_1_living_world_004&#45;&gt;banA_10(do_3)&#45;yA_WA_1(en_had_1)_28</title>
<path fill="none" stroke="black" d="M1684.52,-589.93C1681.49,-575.12 1677.07,-553.43 1673.56,-536.23"/>
<polygon fill="black" stroke="black" points="1676.94,-535.3 1671.51,-526.2 1670.08,-536.7 1676.94,-535.3"/>
<text text-anchor="middle" x="1690" y="-562.6" font-family="Times,serif" font-size="8.00">main</text>
</g>
<!-- banA_10(do_3)&#45;yA_WA_1(en_had_1)_28&#45;&gt;manuRya_1(man_7)_2 -->
<g id="edge21" class="edge">
<title>banA_10(do_3)&#45;yA_WA_1(en_had_1)_28&#45;&gt;manuRya_1(man_7)_2</title>
<path fill="none" stroke="black" d="M1618.96,-490.6C1567.01,-473.22 1485.15,-445.84 1430.78,-427.66"/>
<polygon fill="black" stroke="black" points="1431.89,-424.34 1421.3,-424.49 1429.67,-430.98 1431.89,-424.34"/>
<text text-anchor="middle" x="1565" y="-460.8" font-family="Times,serif" font-size="14.00" fill="blue">k1</text>
</g>
<!-- xevawA_1(god_2)_27 -->
<g id="node34" class="node">
<title>xevawA_1(god_2)_27</title>
<g id="a_node34"><a xlink:title="semCat: &#45;&#10;morphSem: &#45;&#10;speakersView: &#45;&#10;Additional Info: &#45;">
<ellipse fill="none" stroke="black" cx="1629" cy="-408" rx="105.08" ry="18"/>
<text text-anchor="middle" x="1629" y="-404.3" font-family="Times,serif" font-size="14.00">xevawA_1(god_2):27</text>
</a>
</g>
</g>
<!-- banA_10(do_3)&#45;yA_WA_1(en_had_1)_28&#45;&gt;xevawA_1(god_2)_27 -->
<g id="edge32" class="edge">
<title>banA_10(do_3)&#45;yA_WA_1(en_had_1)_28&#45;&gt;xevawA_1(god_2)_27</title>
<path fill="none" stroke="black" d="M1661.21,-489.93C1655.26,-474.99 1646.52,-453.02 1639.64,-435.75"/>
<polygon fill="black" stroke="black" points="1642.8,-434.2 1635.85,-426.2 1636.29,-436.79 1642.8,-434.2"/>
<text text-anchor="middle" x="1665.5" y="-460.8" font-family="Times,serif" font-size="14.00" fill="blue">k2s</text>
</g>
<!-- [conj_4]_32 -->
<g id="node38" class="node">
<title>[conj_4]_32</title>
<g id="a_node38"><a xlink:title="semCat: &#45;&#10;morphSem: &#45;&#10;speakersView: &#45;&#10;Additional Info: &#45;">
<polygon fill="none" stroke="black" points="1938.5,-426 1843.5,-426 1843.5,-390 1938.5,-390 1938.5,-426"/>
<text text-anchor="middle" x="1891" y="-404.3" font-family="Times,serif" font-size="14.00">[conj_4]:32</text>
</a>
</g>
</g>
<!-- banA_10(do_3)&#45;yA_WA_1(en_had_1)_28&#45;&gt;[conj_4]_32 -->
<g id="edge36" class="edge">
<title>banA_10(do_3)&#45;yA_WA_1(en_had_1)_28&#45;&gt;[conj_4]_32</title>
<path fill="none" stroke="black" d="M1706.08,-490.26C1743.82,-473.68 1801.76,-448.22 1842.71,-430.22"/>
<polygon fill="black" stroke="black" points="1844.2,-433.39 1851.95,-426.16 1841.39,-426.98 1844.2,-433.39"/>
<text text-anchor="middle" x="1788" y="-460.8" font-family="Times,serif" font-size="14.00" fill="blue">k2</text>
</g>
<!-- kuCa_1(some_2)_4 -->
<g id="node24" class="node">
<title>kuCa_1(some_2)_4</title>
<g id="a_node24"><a xlink:title="semCat: &#45;&#10;morphSem: &#45;&#10;speakersView: &#45;&#10;Additional Info: &#45;">
<ellipse fill="none" stroke="black" cx="1011" cy="-121" rx="94.78" ry="18"/>
<text text-anchor="middle" x="1011" y="-117.3" font-family="Times,serif" font-size="14.00">kuCa_1(some_2):4</text>
</a>
</g>
</g>
<!-- nirjIva_2(inanimate_2)_5 -->
<g id="node25" class="node">
<title>nirjIva_2(inanimate_2)_5</title>
<g id="a_node25"><a xlink:title="semCat: &#45;&#10;morphSem: &#45;&#10;speakersView: &#45;&#10;Additional Info: &#45;">
<ellipse fill="none" stroke="black" cx="1247" cy="-121" rx="123.48" ry="18"/>
<text text-anchor="middle" x="1247" y="-117.3" font-family="Times,serif" font-size="14.00">nirjIva_2(inanimate_2):5</text>
</a>
</g>
</g>
<!-- paxArWa_2(substance_4)_6 -->
<g id="node26" class="node">
<title>paxArWa_2(substance_4)_6</title>
<g id="a_node26"><a xlink:title="semCat: &#45;&#10;morphSem: &#45;&#10;speakersView: def&#10;Additional Info: &#45;">
<ellipse fill="none" stroke="black" cx="1311" cy="-221" rx="135.38" ry="18"/>
<text text-anchor="middle" x="1311" y="-217.3" font-family="Times,serif" font-size="14.00">paxArWa_2(substance_4):6</text>
</a>
</g>
</g>
<!-- paxArWa_2(substance_4)_6&#45;&gt;kuCa_1(some_2)_4 -->
<g id="edge22" class="edge">
<title>paxArWa_2(substance_4)_6&#45;&gt;kuCa_1(some_2)_4</title>
<path fill="none" stroke="black" d="M1254.44,-204.55C1215.09,-193.49 1161.54,-177.81 1115,-162 1096.45,-155.7 1076.31,-148.13 1058.73,-141.27"/>
<polygon fill="black" stroke="black" points="1059.85,-137.95 1049.26,-137.55 1057.29,-144.46 1059.85,-137.95"/>
<text text-anchor="middle" x="1206" y="-173.8" font-family="Times,serif" font-size="14.00" fill="blue">quant</text>
</g>
<!-- paxArWa_2(substance_4)_6&#45;&gt;nirjIva_2(inanimate_2)_5 -->
<g id="edge23" class="edge">
<title>paxArWa_2(substance_4)_6&#45;&gt;nirjIva_2(inanimate_2)_5</title>
<path fill="none" stroke="black" d="M1297.7,-202.79C1293.52,-197.2 1288.96,-190.91 1285,-185 1276.97,-173.03 1268.64,-159.37 1261.83,-147.84"/>
<polygon fill="black" stroke="black" points="1264.8,-145.99 1256.73,-139.12 1258.76,-149.52 1264.8,-145.99"/>
<text text-anchor="middle" x="1300.5" y="-173.8" font-family="Times,serif" font-size="14.00" fill="blue">mod</text>
</g>
<!-- [conj_1]_31 -->
<g id="node37" class="node">
<title>[conj_1]_31</title>
<g id="a_node37"><a xlink:title="semCat: &#45;&#10;morphSem: &#45;&#10;speakersView: &#45;&#10;Additional Info: &#45;">
<polygon fill="none" stroke="black" points="1742.5,-139 1647.5,-139 1647.5,-103 1742.5,-103 1742.5,-139"/>
<text text-anchor="middle" x="1695" y="-117.3" font-family="Times,serif" font-size="14.00">[conj_1]:31</text>
</a>
</g>
</g>
<!-- paxArWa_2(substance_4)_6&#45;&gt;[conj_1]_31 -->
<g id="edge35" class="edge">
<title>paxArWa_2(substance_4)_6&#45;&gt;[conj_1]_31</title>
<path fill="none" stroke="black" d="M1370.58,-204.8C1443.41,-186.21 1565.81,-154.97 1637.63,-136.64"/>
<polygon fill="black" stroke="black" points="1638.59,-140.01 1647.42,-134.14 1636.86,-133.23 1638.59,-140.01"/>
<text text-anchor="middle" x="1511" y="-173.8" font-family="Times,serif" font-size="14.00" fill="blue">re</text>
</g>
<!-- havA_1(air_12)_8 -->
<g id="node27" class="node">
<title>havA_1(air_12)_8</title>
<g id="a_node27"><a xlink:title="semCat: &#45;&#10;morphSem: &#45;&#10;speakersView: &#45;&#10;Additional Info: &#45;">
<ellipse fill="none" stroke="black" cx="1474" cy="-34" rx="88.28" ry="18"/>
<text text-anchor="middle" x="1474" y="-30.3" font-family="Times,serif" font-size="14.00">havA_1(air_12):8</text>
</a>
</g>
</g>
<!-- samuxra_2(sea_12)_10 -->
<g id="node28" class="node">
<title>samuxra_2(sea_12)_10</title>
<g id="a_node28"><a xlink:title="semCat: &#45;&#10;morphSem: &#45;&#10;speakersView: &#45;&#10;Additional Info: &#45;">
<ellipse fill="none" stroke="black" cx="1695" cy="-34" rx="114.28" ry="18"/>
<text text-anchor="middle" x="1695" y="-30.3" font-family="Times,serif" font-size="14.00">samuxra_2(sea_12):10</text>
</a>
</g>
</g>
<!-- Aga_1(fire_4)_12 -->
<g id="node29" class="node">
<title>Aga_1(fire_4)_12</title>
<g id="a_node29"><a xlink:title="semCat: &#45;&#10;morphSem: &#45;&#10;speakersView: &#45;&#10;Additional Info: &#45;">
<ellipse fill="none" stroke="black" cx="1913" cy="-34" rx="85.59" ry="18"/>
<text text-anchor="middle" x="1913" y="-30.3" font-family="Times,serif" font-size="14.00">Aga_1(fire_4):12</text>
</a>
</g>
</g>
<!-- kuCa_1(some_2)_17 -->
<g id="node30" class="node">
<title>kuCa_1(some_2)_17</title>
<g id="a_node30"><a xlink:title="semCat: &#45;&#10;morphSem: &#45;&#10;speakersView: &#45;&#10;Additional Info: &#45;">
<ellipse fill="none" stroke="black" cx="1602" cy="-221" rx="100.98" ry="18"/>
<text text-anchor="middle" x="1602" y="-217.3" font-family="Times,serif" font-size="14.00">kuCa_1(some_2):17</text>
</a>
</g>
</g>
<!-- jAnavara_1(animal_2)_20 -->
<g id="node31" class="node">
<title>jAnavara_1(animal_2)_20</title>
<g id="a_node31"><a xlink:title="semCat: anim&#10;morphSem: pl&#10;speakersView: &#45;&#10;Additional Info: &#45;">
<ellipse fill="none" stroke="black" cx="2340" cy="-121" rx="124.58" ry="18"/>
<text text-anchor="middle" x="2340" y="-117.3" font-family="Times,serif" font-size="14.00">jAnavara_1(animal_2):20</text>
</a>
</g>
</g>
<!-- pOXa_3(plant_22)_22 -->
<g id="node32" class="node">
<title>pOXa_3(plant_22)_22</title>
<g id="a_node32"><a xlink:title="semCat: &#45;&#10;morphSem: pl&#10;speakersView: &#45;&#10;Additional Info: &#45;">
<ellipse fill="none" stroke="black" cx="2590" cy="-121" rx="107.48" ry="18"/>
<text text-anchor="middle" x="2590" y="-117.3" font-family="Times,serif" font-size="14.00">pOXa_3(plant_22):22</text>
</a>
</g>
</g>
<!-- kuCa_1(some_2)_25 -->
<g id="node33" class="node">
<title>kuCa_1(some_2)_25</title>
<g id="a_node33"><a xlink:title="semCat: &#45;&#10;morphSem: &#45;&#10;speakersView: &#45;&#10;Additional Info: &#45;">
<ellipse fill="none" stroke="black" cx="2098" cy="-221" rx="100.98" ry="18"/>
<text text-anchor="middle" x="2098" y="-217.3" font-family="Times,serif" font-size="14.00">kuCa_1(some_2):25</text>
</a>
</g>
</g>
<!-- [conj_2]_29 -->
<g id="node35" class="node">
<title>[conj_2]_29</title>
<g id="a_node35"><a xlink:title="semCat: &#45;&#10;morphSem: &#45;&#10;speakersView: def&#10;Additional Info: &#45;">
<polygon fill="none" stroke="black" points="2387.5,-239 2292.5,-239 2292.5,-203 2387.5,-203 2387.5,-239"/>
<text text-anchor="middle" x="2340" y="-217.3" font-family="Times,serif" font-size="14.00">[conj_2]:29</text>
</a>
</g>
</g>
<!-- [conj_2]_29&#45;&gt;jAnavara_1(animal_2)_20 -->
<g id="edge29" class="edge">
<title>[conj_2]_29&#45;&gt;jAnavara_1(animal_2)_20</title>
<path fill="none" stroke="black" d="M2340,-202.93C2340,-188.12 2340,-166.43 2340,-149.23"/>
<polygon fill="black" stroke="black" points="2343.5,-149.2 2340,-139.2 2336.5,-149.2 2343.5,-149.2"/>
<text text-anchor="middle" x="2353.5" y="-173.8" font-family="Times,serif" font-size="14.00" fill="blue">op1</text>
</g>
<!-- [conj_2]_29&#45;&gt;pOXa_3(plant_22)_22 -->
<g id="edge30" class="edge">
<title>[conj_2]_29&#45;&gt;pOXa_3(plant_22)_22</title>
<path fill="none" stroke="black" d="M2383.55,-202.93C2427.3,-185.78 2494.63,-159.38 2540.42,-141.44"/>
<polygon fill="black" stroke="black" points="2541.81,-144.65 2549.84,-137.74 2539.25,-138.13 2541.81,-144.65"/>
<text text-anchor="middle" x="2478.5" y="-173.8" font-family="Times,serif" font-size="14.00" fill="blue">op2</text>
</g>
<!-- Axi_15(etc_2)_30 -->
<g id="node36" class="node">
<title>Axi_15(etc_2)_30</title>
<g id="a_node36"><a xlink:title="semCat: &#45;&#10;morphSem: &#45;&#10;speakersView: &#45;&#10;Additional Info: &#45;">
<ellipse fill="none" stroke="black" cx="2104" cy="-34" rx="87.18" ry="18"/>
<text text-anchor="middle" x="2104" y="-30.3" font-family="Times,serif" font-size="14.00">Axi_15(etc_2):30</text>
</a>
</g>
</g>
<!-- [conj_1]_31&#45;&gt;havA_1(air_12)_8 -->
<g id="edge25" class="edge">
<title>[conj_1]_31&#45;&gt;havA_1(air_12)_8</title>
<path fill="none" stroke="black" d="M1650.54,-102.9C1613.59,-88.69 1561.08,-68.49 1522.94,-53.82"/>
<polygon fill="black" stroke="black" points="1524.16,-50.54 1513.57,-50.22 1521.64,-57.07 1524.16,-50.54"/>
<text text-anchor="middle" x="1610.5" y="-73.8" font-family="Times,serif" font-size="14.00" fill="blue">op1</text>
</g>
<!-- [conj_1]_31&#45;&gt;samuxra_2(sea_12)_10 -->
<g id="edge26" class="edge">
<title>[conj_1]_31&#45;&gt;samuxra_2(sea_12)_10</title>
<path fill="none" stroke="black" d="M1695,-102.8C1695,-91.16 1695,-75.55 1695,-62.24"/>
<polygon fill="black" stroke="black" points="1698.5,-62.18 1695,-52.18 1691.5,-62.18 1698.5,-62.18"/>
<text text-anchor="middle" x="1708.5" y="-73.8" font-family="Times,serif" font-size="14.00" fill="blue">op2</text>
</g>
<!-- [conj_1]_31&#45;&gt;Aga_1(fire_4)_12 -->
<g id="edge27" class="edge">
<title>[conj_1]_31&#45;&gt;Aga_1(fire_4)_12</title>
<path fill="none" stroke="black" d="M1738.85,-102.9C1775.26,-88.7 1826.99,-68.54 1864.6,-53.87"/>
<polygon fill="black" stroke="black" points="1866.28,-56.97 1874.33,-50.08 1863.74,-50.45 1866.28,-56.97"/>
<text text-anchor="middle" x="1830.5" y="-73.8" font-family="Times,serif" font-size="14.00" fill="blue">op3</text>
</g>
<!-- [conj_1]_31&#45;&gt;Axi_15(etc_2)_30 -->
<g id="edge34" class="edge">
<title>[conj_1]_31&#45;&gt;Axi_15(etc_2)_30</title>
<path fill="none" stroke="black" d="M1742.72,-110.08C1814.8,-95.1 1951.85,-66.62 2034.86,-49.37"/>
<polygon fill="black" stroke="black" points="2035.63,-52.78 2044.71,-47.32 2034.21,-45.93 2035.63,-52.78"/>
<text text-anchor="middle" x="1936.5" y="-73.8" font-family="Times,serif" font-size="14.00" fill="blue">op4</text>
</g>
<!-- paxArWa_2(substance_4)_33 -->
<g id="node39" class="node">
<title>paxArWa_2(substance_4)_33</title>
<g id="a_node39"><a xlink:title="semCat: &#45;&#10;morphSem: &#45;&#10;speakersView: &#45;&#10;Additional Info: &#45;">
<ellipse fill="none" stroke="black" cx="1891" cy="-321" rx="141.07" ry="18"/>
<text text-anchor="middle" x="1891" y="-317.3" font-family="Times,serif" font-size="14.00">paxArWa_2(substance_4):33</text>
</a>
</g>
</g>
<!-- [conj_4]_32&#45;&gt;paxArWa_2(substance_4)_33 -->
<g id="edge37" class="edge">
<title>[conj_4]_32&#45;&gt;paxArWa_2(substance_4)_33</title>
<path fill="none" stroke="black" d="M1891,-389.8C1891,-378.16 1891,-362.55 1891,-349.24"/>
<polygon fill="black" stroke="black" points="1894.5,-349.18 1891,-339.18 1887.5,-349.18 1894.5,-349.18"/>
<text text-anchor="middle" x="1904.5" y="-360.8" font-family="Times,serif" font-size="14.00" fill="blue">op1</text>
</g>
<!-- [conj_3]_37 -->
<g id="node43" class="node">
<title>[conj_3]_37</title>
<g id="a_node43"><a xlink:title="semCat: &#45;&#10;morphSem: &#45;&#10;speakersView: &#45;&#10;Additional Info: &#45;">
<polygon fill="none" stroke="black" points="2145.5,-339 2050.5,-339 2050.5,-303 2145.5,-303 2145.5,-339"/>
<text text-anchor="middle" x="2098" y="-317.3" font-family="Times,serif" font-size="14.00">[conj_3]:37</text>
</a>
</g>
</g>
<!-- [conj_4]_32&#45;&gt;[conj_3]_37 -->
<g id="edge41" class="edge">
<title>[conj_4]_32&#45;&gt;[conj_3]_37</title>
<path fill="none" stroke="black" d="M1932.89,-389.8C1965.82,-376.27 2011.85,-357.38 2046.94,-342.97"/>
<polygon fill="black" stroke="black" points="2048.61,-346.07 2056.53,-339.03 2045.95,-339.59 2048.61,-346.07"/>
<text text-anchor="middle" x="2019.5" y="-360.8" font-family="Times,serif" font-size="14.00" fill="blue">op2</text>
</g>
<!-- paxArWa_2(substance_4)_33&#45;&gt;paxArWa_2(substance_4)_6 -->
<g id="edge24" class="edge">
<title>paxArWa_2(substance_4)_33&#45;&gt;paxArWa_2(substance_4)_6</title>
<path fill="none" stroke="black" d="M1793.93,-307.91C1712.93,-297.34 1594.6,-280.77 1492,-262 1456.14,-255.44 1416.57,-246.85 1383.6,-239.32"/>
<polygon fill="black" stroke="black" points="1384.13,-235.85 1373.6,-237.02 1382.56,-242.67 1384.13,-235.85"/>
<text text-anchor="middle" x="1631" y="-273.8" font-family="Times,serif" font-size="14.00" fill="blue">rn</text>
</g>
<!-- paxArWa_2(substance_4)_33&#45;&gt;kuCa_1(some_2)_17 -->
<g id="edge28" class="edge">
<title>paxArWa_2(substance_4)_33&#45;&gt;kuCa_1(some_2)_17</title>
<path fill="none" stroke="black" d="M1840.3,-304.1C1804.38,-292.7 1755.1,-276.81 1712,-262 1692.61,-255.33 1671.41,-247.71 1652.85,-240.92"/>
<polygon fill="black" stroke="black" points="1654,-237.61 1643.4,-237.45 1651.58,-244.18 1654,-237.61"/>
<text text-anchor="middle" x="1801" y="-273.8" font-family="Times,serif" font-size="14.00" fill="blue">quant</text>
</g>
<!-- nirjIva_2(inanimate_2)_34 -->
<g id="node40" class="node">
<title>nirjIva_2(inanimate_2)_34</title>
<g id="a_node40"><a xlink:title="semCat: &#45;&#10;morphSem: &#45;&#10;speakersView: &#45;&#10;Additional Info: &#45;">
<ellipse fill="none" stroke="black" cx="1850" cy="-221" rx="129.18" ry="18"/>
<text text-anchor="middle" x="1850" y="-217.3" font-family="Times,serif" font-size="14.00">nirjIva_2(inanimate_2):34</text>
</a>
</g>
</g>
<!-- paxArWa_2(substance_4)_33&#45;&gt;nirjIva_2(inanimate_2)_34 -->
<g id="edge38" class="edge">
<title>paxArWa_2(substance_4)_33&#45;&gt;nirjIva_2(inanimate_2)_34</title>
<path fill="none" stroke="black" d="M1883.86,-302.93C1877.61,-287.99 1868.42,-266.02 1861.19,-248.75"/>
<polygon fill="black" stroke="black" points="1864.29,-247.08 1857.2,-239.2 1857.83,-249.78 1864.29,-247.08"/>
<text text-anchor="middle" x="1890.5" y="-273.8" font-family="Times,serif" font-size="14.00" fill="blue">mod</text>
</g>
<!-- jAnavara_1(animal_2)_35 -->
<g id="node41" class="node">
<title>jAnavara_1(animal_2)_35</title>
<g id="a_node41"><a xlink:title="semCat: anim&#10;morphSem: pl&#10;speakersView: &#45;&#10;Additional Info: &#45;">
<ellipse fill="none" stroke="black" cx="2846" cy="-221" rx="124.58" ry="18"/>
<text text-anchor="middle" x="2846" y="-217.3" font-family="Times,serif" font-size="14.00">jAnavara_1(animal_2):35</text>
</a>
</g>
</g>
<!-- pOXa_3(plant_22)_36 -->
<g id="node42" class="node">
<title>pOXa_3(plant_22)_36</title>
<g id="a_node42"><a xlink:title="semCat: &#45;&#10;morphSem: pl&#10;speakersView: &#45;&#10;Additional Info: &#45;">
<ellipse fill="none" stroke="black" cx="3096" cy="-221" rx="107.48" ry="18"/>
<text text-anchor="middle" x="3096" y="-217.3" font-family="Times,serif" font-size="14.00">pOXa_3(plant_22):36</text>
</a>
</g>
</g>
<!-- [conj_3]_37&#45;&gt;kuCa_1(some_2)_25 -->
<g id="edge31" class="edge">
<title>[conj_3]_37&#45;&gt;kuCa_1(some_2)_25</title>
<path fill="none" stroke="black" d="M2098,-302.93C2098,-288.12 2098,-266.43 2098,-249.23"/>
<polygon fill="black" stroke="black" points="2101.5,-249.2 2098,-239.2 2094.5,-249.2 2101.5,-249.2"/>
<text text-anchor="middle" x="2119" y="-273.8" font-family="Times,serif" font-size="14.00" fill="blue">quant</text>
</g>
<!-- [conj_3]_37&#45;&gt;[conj_2]_29 -->
<g id="edge33" class="edge">
<title>[conj_3]_37&#45;&gt;[conj_2]_29</title>
<path fill="none" stroke="black" d="M2140.15,-302.93C2181.41,-286.22 2244.32,-260.75 2288.52,-242.85"/>
<polygon fill="black" stroke="black" points="2289.97,-246.04 2297.92,-239.04 2287.34,-239.55 2289.97,-246.04"/>
<text text-anchor="middle" x="2227" y="-273.8" font-family="Times,serif" font-size="14.00" fill="blue">rn</text>
</g>
<!-- [conj_3]_37&#45;&gt;jAnavara_1(animal_2)_35 -->
<g id="edge39" class="edge">
<title>[conj_3]_37&#45;&gt;jAnavara_1(animal_2)_35</title>
<path fill="none" stroke="black" d="M2145.58,-318.55C2248.97,-314.72 2501.53,-301.76 2709,-262 2736.18,-256.79 2765.71,-248.52 2790.38,-240.84"/>
<polygon fill="black" stroke="black" points="2791.45,-244.17 2799.93,-237.82 2789.34,-237.5 2791.45,-244.17"/>
<text text-anchor="middle" x="2673.5" y="-273.8" font-family="Times,serif" font-size="14.00" fill="blue">op1</text>
</g>
<!-- [conj_3]_37&#45;&gt;pOXa_3(plant_22)_36 -->
<g id="edge40" class="edge">
<title>[conj_3]_37&#45;&gt;pOXa_3(plant_22)_36</title>
<path fill="none" stroke="black" d="M2145.64,-318.62C2304.97,-313.75 2818.33,-295.74 2980,-262 3002.95,-257.21 3027.61,-249.14 3048.27,-241.51"/>
<polygon fill="black" stroke="black" points="3049.64,-244.73 3057.76,-237.92 3047.17,-238.18 3049.64,-244.73"/>
<text text-anchor="middle" x="2937.5" y="-273.8" font-family="Times,serif" font-size="14.00" fill="blue">op2</text>
</g>
</g>
</svg>
