<?xml version="1.0" encoding="UTF-8" standalone="no"?>
<!DOCTYPE svg PUBLIC "-//W3C//DTD SVG 1.1//EN"
 "http://www.w3.org/Graphics/SVG/1.1/DTD/svg11.dtd">
<!-- Generated by graphviz version 2.43.0 (0)
 -->
<!-- Title: %3 Pages: 1 -->
<svg width="703pt" height="428pt"
 viewBox="0.00 0.00 703.49 428.00" xmlns="http://www.w3.org/2000/svg" xmlns:xlink="http://www.w3.org/1999/xlink">
<g id="graph0" class="graph" transform="scale(1 1) rotate(0) translate(4 424)">
<title>%3</title>
<polygon fill="white" stroke="transparent" points="-4,4 -4,-424 699.49,-424 699.49,4 -4,4"/>
<g id="clust1" class="cluster">
<title>cluster_[nc_1]_15</title>
<polygon fill="lightgray" stroke="black" stroke-dasharray="5,2" points="395.49,-8 395.49,-162 687.49,-162 687.49,-8 395.49,-8"/>
<text text-anchor="middle" x="541.49" y="-153.2" font-family="Times,serif" font-size="6.00">Construction: [nc_1]:15</text>
</g>
<g id="clust2" class="cluster">
<title>cluster_[cp_1]_16</title>
<polygon fill="lightgray" stroke="black" stroke-dasharray="5,2" points="157.49,-195 157.49,-349 375.49,-349 375.49,-195 157.49,-195"/>
<text text-anchor="middle" x="266.49" y="-340.2" font-family="Times,serif" font-size="6.00">Construction: [cp_1]:16</text>
</g>
<!-- sent_biology_chapter3_plantkingdom_173 -->
<g id="node1" class="node">
<title>sent_biology_chapter3_plantkingdom_173</title>
<ellipse fill="lightblue" stroke="blue" cx="266.49" cy="-402" rx="226.36" ry="18"/>
<text text-anchor="middle" x="266.49" y="-398.3" font-family="Times,serif" font-size="14.00">Sentence biology_chapter3_plantkingdom_173</text>
</g>
<!-- [cp_1]_16 -->
<g id="node2" class="node">
<title>[cp_1]_16</title>
<g id="a_node2"><a xlink:title="semCat: &#45;&#10;morphSem: &#45;&#10;speakersView: &#45;&#10;Additional Info: &#45;">
<polygon fill="none" stroke="black" points="307.49,-326 225.49,-326 225.49,-290 307.49,-290 307.49,-326"/>
<text text-anchor="middle" x="266.49" y="-304.3" font-family="Times,serif" font-size="14.00">[cp_1]:16</text>
</a>
</g>
</g>
<!-- sent_biology_chapter3_plantkingdom_173&#45;&gt;[cp_1]_16 -->
<g id="edge1" class="edge">
<title>sent_biology_chapter3_plantkingdom_173&#45;&gt;[cp_1]_16</title>
<path fill="none" stroke="black" d="M266.49,-383.7C266.49,-370.46 266.49,-351.95 266.49,-336.66"/>
<polygon fill="black" stroke="black" points="269.99,-336.23 266.49,-326.23 262.99,-336.23 269.99,-336.23"/>
<text text-anchor="middle" x="276.49" y="-359.6" font-family="Times,serif" font-size="8.00">main</text>
</g>
<!-- kara_1&#45;wA_hE_1_11 -->
<g id="node8" class="node">
<title>kara_1&#45;wA_hE_1_11</title>
<g id="a_node8"><a xlink:title="semCat: &#45;&#10;morphSem: &#45;&#10;speakersView: [shade:xe_1]&#10;Additional Info: &#45;">
<ellipse fill="none" stroke="black" cx="266.49" cy="-221" rx="100.98" ry="18"/>
<text text-anchor="middle" x="266.49" y="-217.3" font-family="Times,serif" font-size="14.00">kara_1&#45;wA_hE_1:11</text>
</a>
</g>
</g>
<!-- [cp_1]_16&#45;&gt;kara_1&#45;wA_hE_1_11 -->
<g id="edge7" class="edge">
<title>[cp_1]_16&#45;&gt;kara_1&#45;wA_hE_1_11</title>
<path fill="none" stroke="black" d="M266.49,-289.8C266.49,-278.16 266.49,-262.55 266.49,-249.24"/>
<polygon fill="black" stroke="black" points="269.99,-249.18 266.49,-239.18 262.99,-249.18 269.99,-249.18"/>
<text text-anchor="middle" x="302.99" y="-260.8" font-family="Times,serif" font-size="14.00" fill="blue">verbalizer</text>
</g>
<!-- koniPZarsa_1 -->
<g id="node3" class="node">
<title>koniPZarsa_1</title>
<g id="a_node3"><a xlink:title="semCat: &#45;&#10;morphSem: &#45;&#10;speakersView: &#45;&#10;Additional Info: &#45;">
<ellipse fill="none" stroke="black" cx="71.49" cy="-121" rx="71.49" ry="18"/>
<text text-anchor="middle" x="71.49" y="-117.3" font-family="Times,serif" font-size="14.00">koniPZarsa:1</text>
</a>
</g>
</g>
<!-- suI_1_4 -->
<g id="node4" class="node">
<title>suI_1_4</title>
<g id="a_node4"><a xlink:title="semCat: &#45;&#10;morphSem: &#45;&#10;speakersView: &#45;&#10;Additional Info: &#45;">
<ellipse fill="none" stroke="black" cx="205.49" cy="-121" rx="44.39" ry="18"/>
<text text-anchor="middle" x="205.49" y="-117.3" font-family="Times,serif" font-size="14.00">suI_1:4</text>
</a>
</g>
</g>
<!-- pawwI_1_6 -->
<g id="node5" class="node">
<title>pawwI_1_6</title>
<g id="a_node5"><a xlink:title="semCat: &#45;&#10;morphSem: &#45;&#10;speakersView: &#45;&#10;Additional Info: &#45;">
<ellipse fill="none" stroke="black" cx="327.49" cy="-121" rx="59.59" ry="18"/>
<text text-anchor="middle" x="327.49" y="-117.3" font-family="Times,serif" font-size="14.00">pawwI_1:6</text>
</a>
</g>
</g>
<!-- sawaha_1_7 -->
<g id="node6" class="node">
<title>sawaha_1_7</title>
<g id="a_node6"><a xlink:title="semCat: &#45;&#10;morphSem: &#45;&#10;speakersView: &#45;&#10;Additional Info: &#45;">
<ellipse fill="none" stroke="black" cx="467.49" cy="-34" rx="64.19" ry="18"/>
<text text-anchor="middle" x="467.49" y="-30.3" font-family="Times,serif" font-size="14.00">sawaha_1:7</text>
</a>
</g>
</g>
<!-- kRewra_1_8 -->
<g id="node7" class="node">
<title>kRewra_1_8</title>
<g id="a_node7"><a xlink:title="semCat: &#45;&#10;morphSem: &#45;&#10;speakersView: &#45;&#10;Additional Info: &#45;">
<ellipse fill="none" stroke="black" cx="614.49" cy="-34" rx="64.99" ry="18"/>
<text text-anchor="middle" x="614.49" y="-30.3" font-family="Times,serif" font-size="14.00">kRewra_1:8</text>
</a>
</g>
</g>
<!-- kara_1&#45;wA_hE_1_11&#45;&gt;koniPZarsa_1 -->
<g id="edge2" class="edge">
<title>kara_1&#45;wA_hE_1_11&#45;&gt;koniPZarsa_1</title>
<path fill="none" stroke="black" d="M234.29,-203.82C200.63,-186.9 147.75,-160.32 111.44,-142.08"/>
<polygon fill="black" stroke="black" points="112.64,-138.76 102.13,-137.4 109.5,-145.02 112.64,-138.76"/>
<text text-anchor="middle" x="204.99" y="-173.8" font-family="Times,serif" font-size="14.00" fill="blue">k7p</text>
</g>
<!-- kara_1&#45;wA_hE_1_11&#45;&gt;suI_1_4 -->
<g id="edge3" class="edge">
<title>kara_1&#45;wA_hE_1_11&#45;&gt;suI_1_4</title>
<path fill="none" stroke="black" d="M255.87,-202.93C246.28,-187.52 232.04,-164.65 221.14,-147.14"/>
<polygon fill="black" stroke="black" points="224.05,-145.19 215.79,-138.55 218.11,-148.89 224.05,-145.19"/>
<text text-anchor="middle" x="250.49" y="-173.8" font-family="Times,serif" font-size="14.00" fill="blue">ru</text>
</g>
<!-- kara_1&#45;wA_hE_1_11&#45;&gt;pawwI_1_6 -->
<g id="edge4" class="edge">
<title>kara_1&#45;wA_hE_1_11&#45;&gt;pawwI_1_6</title>
<path fill="none" stroke="black" d="M277.12,-202.93C286.65,-187.61 300.78,-164.92 311.64,-147.46"/>
<polygon fill="black" stroke="black" points="314.68,-149.21 316.99,-138.87 308.73,-145.51 314.68,-149.21"/>
<text text-anchor="middle" x="305.49" y="-173.8" font-family="Times,serif" font-size="14.00" fill="blue">k1</text>
</g>
<!-- [nc_1]_15 -->
<g id="node9" class="node">
<title>[nc_1]_15</title>
<g id="a_node9"><a xlink:title="semCat: &#45;&#10;morphSem: &#45;&#10;speakersView: &#45;&#10;Additional Info: &#45;">
<polygon fill="none" stroke="black" points="508.49,-139 426.49,-139 426.49,-103 508.49,-103 508.49,-139"/>
<text text-anchor="middle" x="467.49" y="-117.3" font-family="Times,serif" font-size="14.00">[nc_1]:15</text>
</a>
</g>
</g>
<!-- kara_1&#45;wA_hE_1_11&#45;&gt;[nc_1]_15 -->
<g id="edge8" class="edge">
<title>kara_1&#45;wA_hE_1_11&#45;&gt;[nc_1]_15</title>
<path fill="none" stroke="black" d="M304.19,-204.29C330.38,-193.1 365.92,-177.39 396.49,-162 407.34,-156.54 418.9,-150.24 429.47,-144.28"/>
<polygon fill="black" stroke="black" points="431.5,-147.15 438.46,-139.16 428.04,-141.07 431.5,-147.15"/>
<text text-anchor="middle" x="387.49" y="-173.8" font-family="Times,serif" font-size="14.00" fill="blue">k2</text>
</g>
<!-- [nc_1]_15&#45;&gt;sawaha_1_7 -->
<g id="edge5" class="edge">
<title>[nc_1]_15&#45;&gt;sawaha_1_7</title>
<path fill="none" stroke="black" d="M467.49,-102.8C467.49,-91.16 467.49,-75.55 467.49,-62.24"/>
<polygon fill="black" stroke="black" points="470.99,-62.18 467.49,-52.18 463.99,-62.18 470.99,-62.18"/>
<text text-anchor="middle" x="482.99" y="-73.8" font-family="Times,serif" font-size="14.00" fill="blue">mod</text>
</g>
<!-- [nc_1]_15&#45;&gt;kRewra_1_8 -->
<g id="edge6" class="edge">
<title>[nc_1]_15&#45;&gt;kRewra_1_8</title>
<path fill="none" stroke="black" d="M497.24,-102.8C520.85,-89.15 553.93,-70.02 578.94,-55.56"/>
<polygon fill="black" stroke="black" points="580.85,-58.5 587.76,-50.46 577.35,-52.44 580.85,-58.5"/>
<text text-anchor="middle" x="566.99" y="-73.8" font-family="Times,serif" font-size="14.00" fill="blue">head</text>
</g>
</g>
</svg>
