<?xml version="1.0" encoding="UTF-8" standalone="no"?>
<!DOCTYPE svg PUBLIC "-//W3C//DTD SVG 1.1//EN"
 "http://www.w3.org/Graphics/SVG/1.1/DTD/svg11.dtd">
<!-- Generated by graphviz version 2.43.0 (0)
 -->
<!-- Title: %3 Pages: 1 -->
<svg width="2311pt" height="615pt"
 viewBox="0.00 0.00 2310.89 615.00" xmlns="http://www.w3.org/2000/svg" xmlns:xlink="http://www.w3.org/1999/xlink">
<g id="graph0" class="graph" transform="scale(1 1) rotate(0) translate(4 611)">
<title>%3</title>
<polygon fill="white" stroke="transparent" points="-4,4 -4,-611 2306.89,-611 2306.89,4 -4,4"/>
<g id="clust1" class="cluster">
<title>cluster_[conj_2]_29</title>
<polygon fill="lightgray" stroke="black" stroke-dasharray="5,2" points="1290.89,-95 1290.89,-262 1788.89,-262 1788.89,-95 1290.89,-95"/>
<text text-anchor="middle" x="1539.89" y="-253.2" font-family="Times,serif" font-size="6.00">Construction: [conj_2]:29</text>
</g>
<g id="clust2" class="cluster">
<title>cluster_[conj_1]_31</title>
<polygon fill="lightgray" stroke="black" stroke-dasharray="5,2" points="461.89,-8 461.89,-162 1282.89,-162 1282.89,-8 461.89,-8"/>
<text text-anchor="middle" x="872.39" y="-153.2" font-family="Times,serif" font-size="6.00">Construction: [conj_1]:31</text>
</g>
<g id="clust3" class="cluster">
<title>cluster_[conj_4]_32</title>
<polygon fill="lightgray" stroke="black" stroke-dasharray="5,2" points="825.89,-295 825.89,-449 1237.89,-449 1237.89,-295 825.89,-295"/>
<text text-anchor="middle" x="1031.89" y="-440.2" font-family="Times,serif" font-size="6.00">Construction: [conj_4]:32</text>
</g>
<g id="clust4" class="cluster">
<title>cluster_[conj_3]_37</title>
<polygon fill="lightgray" stroke="black" stroke-dasharray="5,2" points="1796.89,-195 1796.89,-262 2294.89,-262 2294.89,-195 1796.89,-195"/>
<text text-anchor="middle" x="2045.89" y="-253.2" font-family="Times,serif" font-size="6.00">Construction: [conj_3]:37</text>
</g>
<!-- sent_chapter_1_living_world_004 -->
<g id="node1" class="node">
<title>sent_chapter_1_living_world_004</title>
<ellipse fill="lightblue" stroke="blue" cx="712.89" cy="-589" rx="185.47" ry="18"/>
<text text-anchor="middle" x="712.89" y="-585.3" font-family="Times,serif" font-size="14.00">Sentence chapter_1_living_world_004</text>
</g>
<!-- banA_10(do_3)&#45;yA_WA_1(en_had_1)_28 -->
<g id="node2" class="node">
<title>banA_10(do_3)&#45;yA_WA_1(en_had_1)_28</title>
<g id="a_node2"><a xlink:title="semCat: &#45;&#10;morphSem: &#45;&#10;speakersView: &#45;&#10;Additional Info: &#45;">
<ellipse fill="none" stroke="black" cx="712.89" cy="-508" rx="187.37" ry="18"/>
<text text-anchor="middle" x="712.89" y="-504.3" font-family="Times,serif" font-size="14.00">banA_10(do_3)&#45;yA_WA_1(en_had_1):28</text>
</a>
</g>
</g>
<!-- sent_chapter_1_living_world_004&#45;&gt;banA_10(do_3)&#45;yA_WA_1(en_had_1)_28 -->
<g id="edge1" class="edge">
<title>sent_chapter_1_living_world_004&#45;&gt;banA_10(do_3)&#45;yA_WA_1(en_had_1)_28</title>
<path fill="none" stroke="black" d="M712.89,-570.86C712.89,-560.71 712.89,-547.63 712.89,-536.12"/>
<polygon fill="black" stroke="black" points="716.39,-536.11 712.89,-526.11 709.39,-536.11 716.39,-536.11"/>
<text text-anchor="middle" x="722.89" y="-546.6" font-family="Times,serif" font-size="8.00">main</text>
</g>
<!-- manuRya_1(man_7)_2 -->
<g id="node4" class="node">
<title>manuRya_1(man_7)_2</title>
<g id="a_node4"><a xlink:title="semCat: anim&#10;morphSem: &#45;&#10;speakersView: &#45;&#10;Additional Info: &#45;">
<ellipse fill="none" stroke="black" cx="478.89" cy="-408" rx="110.48" ry="18"/>
<text text-anchor="middle" x="478.89" y="-404.3" font-family="Times,serif" font-size="14.00">manuRya_1(man_7):2</text>
</a>
</g>
</g>
<!-- banA_10(do_3)&#45;yA_WA_1(en_had_1)_28&#45;&gt;manuRya_1(man_7)_2 -->
<g id="edge3" class="edge">
<title>banA_10(do_3)&#45;yA_WA_1(en_had_1)_28&#45;&gt;manuRya_1(man_7)_2</title>
<path fill="none" stroke="black" d="M673.2,-490.38C632.71,-473.42 569.86,-447.1 526.67,-429.01"/>
<polygon fill="black" stroke="black" points="527.8,-425.69 517.22,-425.05 525.1,-432.15 527.8,-425.69"/>
<text text-anchor="middle" x="631.89" y="-460.8" font-family="Times,serif" font-size="14.00" fill="blue">k1</text>
</g>
<!-- xevawA_1(god_2)_27 -->
<g id="node15" class="node">
<title>xevawA_1(god_2)_27</title>
<g id="a_node15"><a xlink:title="semCat: &#45;&#10;morphSem: &#45;&#10;speakersView: &#45;&#10;Additional Info: &#45;">
<ellipse fill="none" stroke="black" cx="712.89" cy="-408" rx="105.08" ry="18"/>
<text text-anchor="middle" x="712.89" y="-404.3" font-family="Times,serif" font-size="14.00">xevawA_1(god_2):27</text>
</a>
</g>
</g>
<!-- banA_10(do_3)&#45;yA_WA_1(en_had_1)_28&#45;&gt;xevawA_1(god_2)_27 -->
<g id="edge14" class="edge">
<title>banA_10(do_3)&#45;yA_WA_1(en_had_1)_28&#45;&gt;xevawA_1(god_2)_27</title>
<path fill="none" stroke="black" d="M712.89,-489.93C712.89,-475.12 712.89,-453.43 712.89,-436.23"/>
<polygon fill="black" stroke="black" points="716.39,-436.2 712.89,-426.2 709.39,-436.2 716.39,-436.2"/>
<text text-anchor="middle" x="725.39" y="-460.8" font-family="Times,serif" font-size="14.00" fill="blue">k2s</text>
</g>
<!-- [conj_4]_32 -->
<g id="node19" class="node">
<title>[conj_4]_32</title>
<g id="a_node19"><a xlink:title="semCat: &#45;&#10;morphSem: &#45;&#10;speakersView: &#45;&#10;Additional Info: &#45;">
<polygon fill="none" stroke="black" points="1022.39,-426 927.39,-426 927.39,-390 1022.39,-390 1022.39,-426"/>
<text text-anchor="middle" x="974.89" y="-404.3" font-family="Times,serif" font-size="14.00">[conj_4]:32</text>
</a>
</g>
</g>
<!-- banA_10(do_3)&#45;yA_WA_1(en_had_1)_28&#45;&gt;[conj_4]_32 -->
<g id="edge18" class="edge">
<title>banA_10(do_3)&#45;yA_WA_1(en_had_1)_28&#45;&gt;[conj_4]_32</title>
<path fill="none" stroke="black" d="M757.04,-490.49C801.88,-473.71 871.44,-447.69 919.85,-429.59"/>
<polygon fill="black" stroke="black" points="921.1,-432.86 929.24,-426.08 918.65,-426.3 921.1,-432.86"/>
<text text-anchor="middle" x="852.89" y="-460.8" font-family="Times,serif" font-size="14.00" fill="blue">k2</text>
</g>
<!-- AraMBika_9_1 -->
<g id="node3" class="node">
<title>AraMBika_9_1</title>
<g id="a_node3"><a xlink:title="semCat: &#45;&#10;morphSem: &#45;&#10;speakersView: &#45;&#10;Additional Info: &#45;">
<ellipse fill="none" stroke="black" cx="478.89" cy="-321" rx="75.29" ry="18"/>
<text text-anchor="middle" x="478.89" y="-317.3" font-family="Times,serif" font-size="14.00">AraMBika_9:1</text>
</a>
</g>
</g>
<!-- manuRya_1(man_7)_2&#45;&gt;AraMBika_9_1 -->
<g id="edge2" class="edge">
<title>manuRya_1(man_7)_2&#45;&gt;AraMBika_9_1</title>
<path fill="none" stroke="black" d="M478.89,-389.8C478.89,-378.16 478.89,-362.55 478.89,-349.24"/>
<polygon fill="black" stroke="black" points="482.39,-349.18 478.89,-339.18 475.39,-349.18 482.39,-349.18"/>
<text text-anchor="middle" x="494.39" y="-360.8" font-family="Times,serif" font-size="14.00" fill="blue">mod</text>
</g>
<!-- kuCa_1(some_2)_4 -->
<g id="node5" class="node">
<title>kuCa_1(some_2)_4</title>
<g id="a_node5"><a xlink:title="semCat: &#45;&#10;morphSem: &#45;&#10;speakersView: &#45;&#10;Additional Info: &#45;">
<ellipse fill="none" stroke="black" cx="94.89" cy="-121" rx="94.78" ry="18"/>
<text text-anchor="middle" x="94.89" y="-117.3" font-family="Times,serif" font-size="14.00">kuCa_1(some_2):4</text>
</a>
</g>
</g>
<!-- nirjIva_2(inanimate_2)_5 -->
<g id="node6" class="node">
<title>nirjIva_2(inanimate_2)_5</title>
<g id="a_node6"><a xlink:title="semCat: &#45;&#10;morphSem: &#45;&#10;speakersView: &#45;&#10;Additional Info: &#45;">
<ellipse fill="none" stroke="black" cx="330.89" cy="-121" rx="123.48" ry="18"/>
<text text-anchor="middle" x="330.89" y="-117.3" font-family="Times,serif" font-size="14.00">nirjIva_2(inanimate_2):5</text>
</a>
</g>
</g>
<!-- paxArWa_2(substance_4)_6 -->
<g id="node7" class="node">
<title>paxArWa_2(substance_4)_6</title>
<g id="a_node7"><a xlink:title="semCat: &#45;&#10;morphSem: &#45;&#10;speakersView: def&#10;Additional Info: &#45;">
<ellipse fill="none" stroke="black" cx="394.89" cy="-221" rx="135.38" ry="18"/>
<text text-anchor="middle" x="394.89" y="-217.3" font-family="Times,serif" font-size="14.00">paxArWa_2(substance_4):6</text>
</a>
</g>
</g>
<!-- paxArWa_2(substance_4)_6&#45;&gt;kuCa_1(some_2)_4 -->
<g id="edge4" class="edge">
<title>paxArWa_2(substance_4)_6&#45;&gt;kuCa_1(some_2)_4</title>
<path fill="none" stroke="black" d="M338.33,-204.55C298.98,-193.49 245.43,-177.81 198.89,-162 180.35,-155.7 160.2,-148.13 142.62,-141.27"/>
<polygon fill="black" stroke="black" points="143.74,-137.95 133.15,-137.55 141.18,-144.46 143.74,-137.95"/>
<text text-anchor="middle" x="289.89" y="-173.8" font-family="Times,serif" font-size="14.00" fill="blue">quant</text>
</g>
<!-- paxArWa_2(substance_4)_6&#45;&gt;nirjIva_2(inanimate_2)_5 -->
<g id="edge5" class="edge">
<title>paxArWa_2(substance_4)_6&#45;&gt;nirjIva_2(inanimate_2)_5</title>
<path fill="none" stroke="black" d="M381.6,-202.79C377.41,-197.2 372.86,-190.91 368.89,-185 360.86,-173.03 352.53,-159.37 345.72,-147.84"/>
<polygon fill="black" stroke="black" points="348.69,-145.99 340.62,-139.12 342.65,-149.52 348.69,-145.99"/>
<text text-anchor="middle" x="384.39" y="-173.8" font-family="Times,serif" font-size="14.00" fill="blue">mod</text>
</g>
<!-- [conj_1]_31 -->
<g id="node18" class="node">
<title>[conj_1]_31</title>
<g id="a_node18"><a xlink:title="semCat: &#45;&#10;morphSem: &#45;&#10;speakersView: &#45;&#10;Additional Info: &#45;">
<polygon fill="none" stroke="black" points="826.39,-139 731.39,-139 731.39,-103 826.39,-103 826.39,-139"/>
<text text-anchor="middle" x="778.89" y="-117.3" font-family="Times,serif" font-size="14.00">[conj_1]:31</text>
</a>
</g>
</g>
<!-- paxArWa_2(substance_4)_6&#45;&gt;[conj_1]_31 -->
<g id="edge17" class="edge">
<title>paxArWa_2(substance_4)_6&#45;&gt;[conj_1]_31</title>
<path fill="none" stroke="black" d="M454.47,-204.8C527.3,-186.21 649.71,-154.97 721.52,-136.64"/>
<polygon fill="black" stroke="black" points="722.48,-140.01 731.31,-134.14 720.75,-133.23 722.48,-140.01"/>
<text text-anchor="middle" x="594.89" y="-173.8" font-family="Times,serif" font-size="14.00" fill="blue">re</text>
</g>
<!-- havA_1(air_12)_8 -->
<g id="node8" class="node">
<title>havA_1(air_12)_8</title>
<g id="a_node8"><a xlink:title="semCat: &#45;&#10;morphSem: &#45;&#10;speakersView: &#45;&#10;Additional Info: &#45;">
<ellipse fill="none" stroke="black" cx="557.89" cy="-34" rx="88.28" ry="18"/>
<text text-anchor="middle" x="557.89" y="-30.3" font-family="Times,serif" font-size="14.00">havA_1(air_12):8</text>
</a>
</g>
</g>
<!-- samuxra_2(sea_12)_10 -->
<g id="node9" class="node">
<title>samuxra_2(sea_12)_10</title>
<g id="a_node9"><a xlink:title="semCat: &#45;&#10;morphSem: &#45;&#10;speakersView: &#45;&#10;Additional Info: &#45;">
<ellipse fill="none" stroke="black" cx="778.89" cy="-34" rx="114.28" ry="18"/>
<text text-anchor="middle" x="778.89" y="-30.3" font-family="Times,serif" font-size="14.00">samuxra_2(sea_12):10</text>
</a>
</g>
</g>
<!-- Aga_1(fire_4)_12 -->
<g id="node10" class="node">
<title>Aga_1(fire_4)_12</title>
<g id="a_node10"><a xlink:title="semCat: &#45;&#10;morphSem: &#45;&#10;speakersView: &#45;&#10;Additional Info: &#45;">
<ellipse fill="none" stroke="black" cx="996.89" cy="-34" rx="85.59" ry="18"/>
<text text-anchor="middle" x="996.89" y="-30.3" font-family="Times,serif" font-size="14.00">Aga_1(fire_4):12</text>
</a>
</g>
</g>
<!-- kuCa_1(some_2)_17 -->
<g id="node11" class="node">
<title>kuCa_1(some_2)_17</title>
<g id="a_node11"><a xlink:title="semCat: &#45;&#10;morphSem: &#45;&#10;speakersView: &#45;&#10;Additional Info: &#45;">
<ellipse fill="none" stroke="black" cx="685.89" cy="-221" rx="100.98" ry="18"/>
<text text-anchor="middle" x="685.89" y="-217.3" font-family="Times,serif" font-size="14.00">kuCa_1(some_2):17</text>
</a>
</g>
</g>
<!-- jAnavara_1(animal_2)_20 -->
<g id="node12" class="node">
<title>jAnavara_1(animal_2)_20</title>
<g id="a_node12"><a xlink:title="semCat: anim&#10;morphSem: pl&#10;speakersView: &#45;&#10;Additional Info: &#45;">
<ellipse fill="none" stroke="black" cx="1423.89" cy="-121" rx="124.58" ry="18"/>
<text text-anchor="middle" x="1423.89" y="-117.3" font-family="Times,serif" font-size="14.00">jAnavara_1(animal_2):20</text>
</a>
</g>
</g>
<!-- pOXa_3(plant_22)_22 -->
<g id="node13" class="node">
<title>pOXa_3(plant_22)_22</title>
<g id="a_node13"><a xlink:title="semCat: &#45;&#10;morphSem: pl&#10;speakersView: &#45;&#10;Additional Info: &#45;">
<ellipse fill="none" stroke="black" cx="1673.89" cy="-121" rx="107.48" ry="18"/>
<text text-anchor="middle" x="1673.89" y="-117.3" font-family="Times,serif" font-size="14.00">pOXa_3(plant_22):22</text>
</a>
</g>
</g>
<!-- kuCa_1(some_2)_25 -->
<g id="node14" class="node">
<title>kuCa_1(some_2)_25</title>
<g id="a_node14"><a xlink:title="semCat: &#45;&#10;morphSem: &#45;&#10;speakersView: &#45;&#10;Additional Info: &#45;">
<ellipse fill="none" stroke="black" cx="1181.89" cy="-221" rx="100.98" ry="18"/>
<text text-anchor="middle" x="1181.89" y="-217.3" font-family="Times,serif" font-size="14.00">kuCa_1(some_2):25</text>
</a>
</g>
</g>
<!-- [conj_2]_29 -->
<g id="node16" class="node">
<title>[conj_2]_29</title>
<g id="a_node16"><a xlink:title="semCat: &#45;&#10;morphSem: &#45;&#10;speakersView: def&#10;Additional Info: &#45;">
<polygon fill="none" stroke="black" points="1471.39,-239 1376.39,-239 1376.39,-203 1471.39,-203 1471.39,-239"/>
<text text-anchor="middle" x="1423.89" y="-217.3" font-family="Times,serif" font-size="14.00">[conj_2]:29</text>
</a>
</g>
</g>
<!-- [conj_2]_29&#45;&gt;jAnavara_1(animal_2)_20 -->
<g id="edge11" class="edge">
<title>[conj_2]_29&#45;&gt;jAnavara_1(animal_2)_20</title>
<path fill="none" stroke="black" d="M1423.89,-202.93C1423.89,-188.12 1423.89,-166.43 1423.89,-149.23"/>
<polygon fill="black" stroke="black" points="1427.39,-149.2 1423.89,-139.2 1420.39,-149.2 1427.39,-149.2"/>
<text text-anchor="middle" x="1437.39" y="-173.8" font-family="Times,serif" font-size="14.00" fill="blue">op1</text>
</g>
<!-- [conj_2]_29&#45;&gt;pOXa_3(plant_22)_22 -->
<g id="edge12" class="edge">
<title>[conj_2]_29&#45;&gt;pOXa_3(plant_22)_22</title>
<path fill="none" stroke="black" d="M1467.44,-202.93C1511.19,-185.78 1578.53,-159.38 1624.31,-141.44"/>
<polygon fill="black" stroke="black" points="1625.7,-144.65 1633.73,-137.74 1623.15,-138.13 1625.7,-144.65"/>
<text text-anchor="middle" x="1562.39" y="-173.8" font-family="Times,serif" font-size="14.00" fill="blue">op2</text>
</g>
<!-- Axi_15(etc_2)_30 -->
<g id="node17" class="node">
<title>Axi_15(etc_2)_30</title>
<g id="a_node17"><a xlink:title="semCat: &#45;&#10;morphSem: &#45;&#10;speakersView: &#45;&#10;Additional Info: &#45;">
<ellipse fill="none" stroke="black" cx="1187.89" cy="-34" rx="87.18" ry="18"/>
<text text-anchor="middle" x="1187.89" y="-30.3" font-family="Times,serif" font-size="14.00">Axi_15(etc_2):30</text>
</a>
</g>
</g>
<!-- [conj_1]_31&#45;&gt;havA_1(air_12)_8 -->
<g id="edge7" class="edge">
<title>[conj_1]_31&#45;&gt;havA_1(air_12)_8</title>
<path fill="none" stroke="black" d="M734.43,-102.9C697.48,-88.69 644.97,-68.49 606.83,-53.82"/>
<polygon fill="black" stroke="black" points="608.05,-50.54 597.46,-50.22 605.54,-57.07 608.05,-50.54"/>
<text text-anchor="middle" x="694.39" y="-73.8" font-family="Times,serif" font-size="14.00" fill="blue">op1</text>
</g>
<!-- [conj_1]_31&#45;&gt;samuxra_2(sea_12)_10 -->
<g id="edge8" class="edge">
<title>[conj_1]_31&#45;&gt;samuxra_2(sea_12)_10</title>
<path fill="none" stroke="black" d="M778.89,-102.8C778.89,-91.16 778.89,-75.55 778.89,-62.24"/>
<polygon fill="black" stroke="black" points="782.39,-62.18 778.89,-52.18 775.39,-62.18 782.39,-62.18"/>
<text text-anchor="middle" x="792.39" y="-73.8" font-family="Times,serif" font-size="14.00" fill="blue">op2</text>
</g>
<!-- [conj_1]_31&#45;&gt;Aga_1(fire_4)_12 -->
<g id="edge9" class="edge">
<title>[conj_1]_31&#45;&gt;Aga_1(fire_4)_12</title>
<path fill="none" stroke="black" d="M822.74,-102.9C859.15,-88.7 910.88,-68.54 948.49,-53.87"/>
<polygon fill="black" stroke="black" points="950.17,-56.97 958.22,-50.08 947.63,-50.45 950.17,-56.97"/>
<text text-anchor="middle" x="914.39" y="-73.8" font-family="Times,serif" font-size="14.00" fill="blue">op3</text>
</g>
<!-- [conj_1]_31&#45;&gt;Axi_15(etc_2)_30 -->
<g id="edge16" class="edge">
<title>[conj_1]_31&#45;&gt;Axi_15(etc_2)_30</title>
<path fill="none" stroke="black" d="M826.61,-110.08C898.7,-95.1 1035.74,-66.62 1118.76,-49.37"/>
<polygon fill="black" stroke="black" points="1119.53,-52.78 1128.6,-47.32 1118.1,-45.93 1119.53,-52.78"/>
<text text-anchor="middle" x="1020.39" y="-73.8" font-family="Times,serif" font-size="14.00" fill="blue">op4</text>
</g>
<!-- paxArWa_2(substance_4)_33 -->
<g id="node20" class="node">
<title>paxArWa_2(substance_4)_33</title>
<g id="a_node20"><a xlink:title="semCat: &#45;&#10;morphSem: &#45;&#10;speakersView: &#45;&#10;Additional Info: &#45;">
<ellipse fill="none" stroke="black" cx="974.89" cy="-321" rx="141.07" ry="18"/>
<text text-anchor="middle" x="974.89" y="-317.3" font-family="Times,serif" font-size="14.00">paxArWa_2(substance_4):33</text>
</a>
</g>
</g>
<!-- [conj_4]_32&#45;&gt;paxArWa_2(substance_4)_33 -->
<g id="edge19" class="edge">
<title>[conj_4]_32&#45;&gt;paxArWa_2(substance_4)_33</title>
<path fill="none" stroke="black" d="M974.89,-389.8C974.89,-378.16 974.89,-362.55 974.89,-349.24"/>
<polygon fill="black" stroke="black" points="978.39,-349.18 974.89,-339.18 971.39,-349.18 978.39,-349.18"/>
<text text-anchor="middle" x="988.39" y="-360.8" font-family="Times,serif" font-size="14.00" fill="blue">op1</text>
</g>
<!-- [conj_3]_37 -->
<g id="node24" class="node">
<title>[conj_3]_37</title>
<g id="a_node24"><a xlink:title="semCat: &#45;&#10;morphSem: &#45;&#10;speakersView: &#45;&#10;Additional Info: &#45;">
<polygon fill="none" stroke="black" points="1229.39,-339 1134.39,-339 1134.39,-303 1229.39,-303 1229.39,-339"/>
<text text-anchor="middle" x="1181.89" y="-317.3" font-family="Times,serif" font-size="14.00">[conj_3]:37</text>
</a>
</g>
</g>
<!-- [conj_4]_32&#45;&gt;[conj_3]_37 -->
<g id="edge23" class="edge">
<title>[conj_4]_32&#45;&gt;[conj_3]_37</title>
<path fill="none" stroke="black" d="M1016.78,-389.8C1049.72,-376.27 1095.74,-357.38 1130.83,-342.97"/>
<polygon fill="black" stroke="black" points="1132.5,-346.07 1140.42,-339.03 1129.84,-339.59 1132.5,-346.07"/>
<text text-anchor="middle" x="1103.39" y="-360.8" font-family="Times,serif" font-size="14.00" fill="blue">op2</text>
</g>
<!-- paxArWa_2(substance_4)_33&#45;&gt;paxArWa_2(substance_4)_6 -->
<g id="edge6" class="edge">
<title>paxArWa_2(substance_4)_33&#45;&gt;paxArWa_2(substance_4)_6</title>
<path fill="none" stroke="black" d="M877.82,-307.91C796.82,-297.34 678.49,-280.77 575.89,-262 540.03,-255.44 500.47,-246.85 467.5,-239.32"/>
<polygon fill="black" stroke="black" points="468.02,-235.85 457.49,-237.02 466.45,-242.67 468.02,-235.85"/>
<text text-anchor="middle" x="714.89" y="-273.8" font-family="Times,serif" font-size="14.00" fill="blue">rn</text>
</g>
<!-- paxArWa_2(substance_4)_33&#45;&gt;kuCa_1(some_2)_17 -->
<g id="edge10" class="edge">
<title>paxArWa_2(substance_4)_33&#45;&gt;kuCa_1(some_2)_17</title>
<path fill="none" stroke="black" d="M924.2,-304.1C888.27,-292.7 838.99,-276.81 795.89,-262 776.5,-255.33 755.3,-247.71 736.74,-240.92"/>
<polygon fill="black" stroke="black" points="737.89,-237.61 727.29,-237.45 735.48,-244.18 737.89,-237.61"/>
<text text-anchor="middle" x="884.89" y="-273.8" font-family="Times,serif" font-size="14.00" fill="blue">quant</text>
</g>
<!-- nirjIva_2(inanimate_2)_34 -->
<g id="node21" class="node">
<title>nirjIva_2(inanimate_2)_34</title>
<g id="a_node21"><a xlink:title="semCat: &#45;&#10;morphSem: &#45;&#10;speakersView: &#45;&#10;Additional Info: &#45;">
<ellipse fill="none" stroke="black" cx="933.89" cy="-221" rx="129.18" ry="18"/>
<text text-anchor="middle" x="933.89" y="-217.3" font-family="Times,serif" font-size="14.00">nirjIva_2(inanimate_2):34</text>
</a>
</g>
</g>
<!-- paxArWa_2(substance_4)_33&#45;&gt;nirjIva_2(inanimate_2)_34 -->
<g id="edge20" class="edge">
<title>paxArWa_2(substance_4)_33&#45;&gt;nirjIva_2(inanimate_2)_34</title>
<path fill="none" stroke="black" d="M967.75,-302.93C961.5,-287.99 952.31,-266.02 945.08,-248.75"/>
<polygon fill="black" stroke="black" points="948.18,-247.08 941.09,-239.2 941.72,-249.78 948.18,-247.08"/>
<text text-anchor="middle" x="974.39" y="-273.8" font-family="Times,serif" font-size="14.00" fill="blue">mod</text>
</g>
<!-- jAnavara_1(animal_2)_35 -->
<g id="node22" class="node">
<title>jAnavara_1(animal_2)_35</title>
<g id="a_node22"><a xlink:title="semCat: anim&#10;morphSem: pl&#10;speakersView: &#45;&#10;Additional Info: &#45;">
<ellipse fill="none" stroke="black" cx="1929.89" cy="-221" rx="124.58" ry="18"/>
<text text-anchor="middle" x="1929.89" y="-217.3" font-family="Times,serif" font-size="14.00">jAnavara_1(animal_2):35</text>
</a>
</g>
</g>
<!-- pOXa_3(plant_22)_36 -->
<g id="node23" class="node">
<title>pOXa_3(plant_22)_36</title>
<g id="a_node23"><a xlink:title="semCat: &#45;&#10;morphSem: pl&#10;speakersView: &#45;&#10;Additional Info: &#45;">
<ellipse fill="none" stroke="black" cx="2179.89" cy="-221" rx="107.48" ry="18"/>
<text text-anchor="middle" x="2179.89" y="-217.3" font-family="Times,serif" font-size="14.00">pOXa_3(plant_22):36</text>
</a>
</g>
</g>
<!-- [conj_3]_37&#45;&gt;kuCa_1(some_2)_25 -->
<g id="edge13" class="edge">
<title>[conj_3]_37&#45;&gt;kuCa_1(some_2)_25</title>
<path fill="none" stroke="black" d="M1181.89,-302.93C1181.89,-288.12 1181.89,-266.43 1181.89,-249.23"/>
<polygon fill="black" stroke="black" points="1185.39,-249.2 1181.89,-239.2 1178.39,-249.2 1185.39,-249.2"/>
<text text-anchor="middle" x="1202.89" y="-273.8" font-family="Times,serif" font-size="14.00" fill="blue">quant</text>
</g>
<!-- [conj_3]_37&#45;&gt;[conj_2]_29 -->
<g id="edge15" class="edge">
<title>[conj_3]_37&#45;&gt;[conj_2]_29</title>
<path fill="none" stroke="black" d="M1224.04,-302.93C1265.3,-286.22 1328.21,-260.75 1372.41,-242.85"/>
<polygon fill="black" stroke="black" points="1373.86,-246.04 1381.82,-239.04 1371.23,-239.55 1373.86,-246.04"/>
<text text-anchor="middle" x="1310.89" y="-273.8" font-family="Times,serif" font-size="14.00" fill="blue">rn</text>
</g>
<!-- [conj_3]_37&#45;&gt;jAnavara_1(animal_2)_35 -->
<g id="edge21" class="edge">
<title>[conj_3]_37&#45;&gt;jAnavara_1(animal_2)_35</title>
<path fill="none" stroke="black" d="M1229.47,-318.55C1332.86,-314.72 1585.43,-301.76 1792.89,-262 1820.07,-256.79 1849.6,-248.52 1874.27,-240.84"/>
<polygon fill="black" stroke="black" points="1875.34,-244.17 1883.82,-237.82 1873.23,-237.5 1875.34,-244.17"/>
<text text-anchor="middle" x="1757.39" y="-273.8" font-family="Times,serif" font-size="14.00" fill="blue">op1</text>
</g>
<!-- [conj_3]_37&#45;&gt;pOXa_3(plant_22)_36 -->
<g id="edge22" class="edge">
<title>[conj_3]_37&#45;&gt;pOXa_3(plant_22)_36</title>
<path fill="none" stroke="black" d="M1229.53,-318.62C1388.87,-313.75 1902.22,-295.74 2063.89,-262 2086.84,-257.21 2111.5,-249.14 2132.16,-241.51"/>
<polygon fill="black" stroke="black" points="2133.53,-244.73 2141.65,-237.92 2131.06,-238.18 2133.53,-244.73"/>
<text text-anchor="middle" x="2021.39" y="-273.8" font-family="Times,serif" font-size="14.00" fill="blue">op2</text>
</g>
</g>
</svg>
