<?xml version="1.0" encoding="UTF-8" standalone="no"?>
<!DOCTYPE svg PUBLIC "-//W3C//DTD SVG 1.1//EN"
 "http://www.w3.org/Graphics/SVG/1.1/DTD/svg11.dtd">
<!-- Generated by graphviz version 2.43.0 (0)
 -->
<!-- Title: %3 Pages: 1 -->
<svg width="1095pt" height="715pt"
 viewBox="0.00 0.00 1094.79 715.00" xmlns="http://www.w3.org/2000/svg" xmlns:xlink="http://www.w3.org/1999/xlink">
<g id="graph0" class="graph" transform="scale(1 1) rotate(0) translate(4 711)">
<title>%3</title>
<polygon fill="white" stroke="transparent" points="-4,4 -4,-711 1090.79,-711 1090.79,4 -4,4"/>
<g id="clust2" class="cluster">
<title>cluster_[cp_1]_20</title>
<polygon fill="lightgray" stroke="black" stroke-dasharray="5,2" points="847.79,-282 847.79,-449 975.79,-449 975.79,-282 847.79,-282"/>
<text text-anchor="middle" x="911.79" y="-440.2" font-family="Times,serif" font-size="6.00">Construction: [cp_1]:20</text>
</g>
<g id="clust3" class="cluster">
<title>cluster_[cp_2]_21</title>
<polygon fill="lightgray" stroke="black" stroke-dasharray="5,2" points="700.79,-482 700.79,-636 1078.79,-636 1078.79,-482 700.79,-482"/>
<text text-anchor="middle" x="889.79" y="-627.2" font-family="Times,serif" font-size="6.00">Construction: [cp_2]:21</text>
</g>
<g id="clust4" class="cluster">
<title>cluster_[conj_1]_22</title>
<polygon fill="lightgray" stroke="black" stroke-dasharray="5,2" points="527.79,-282 527.79,-449 839.79,-449 839.79,-282 527.79,-282"/>
<text text-anchor="middle" x="683.79" y="-440.2" font-family="Times,serif" font-size="6.00">Construction: [conj_1]:22</text>
</g>
<g id="clust5" class="cluster">
<title>cluster_[nc_1]_15</title>
<polygon fill="lightgray" stroke="black" stroke-dasharray="5,2" points="127.79,-8 127.79,-162 419.79,-162 419.79,-8 127.79,-8"/>
<text text-anchor="middle" x="273.79" y="-153.2" font-family="Times,serif" font-size="6.00">Construction: [nc_1]:15</text>
</g>
<g id="clust6" class="cluster">
<title>cluster_[cp_1]_16</title>
<polygon fill="lightgray" stroke="black" stroke-dasharray="5,2" points="235.79,-195 235.79,-349 453.79,-349 453.79,-195 235.79,-195"/>
<text text-anchor="middle" x="344.79" y="-340.2" font-family="Times,serif" font-size="6.00">Construction: [cp_1]:16</text>
</g>
<!-- sent_biology_chapter3_plantkingdom_173 -->
<g id="node1" class="node">
<title>sent_biology_chapter3_plantkingdom_173</title>
<ellipse fill="lightblue" stroke="blue" cx="344.79" cy="-689" rx="226.36" ry="18"/>
<text text-anchor="middle" x="344.79" y="-685.3" font-family="Times,serif" font-size="14.00">Sentence biology_chapter3_plantkingdom_173</text>
</g>
<!-- [cp_1]_16 -->
<g id="node17" class="node">
<title>[cp_1]_16</title>
<g id="a_node17"><a xlink:title="semCat: &#45;&#10;morphSem: &#45;&#10;speakersView: &#45;&#10;Additional Info: &#45;">
<polygon fill="none" stroke="black" points="385.79,-326 303.79,-326 303.79,-290 385.79,-290 385.79,-326"/>
<text text-anchor="middle" x="344.79" y="-304.3" font-family="Times,serif" font-size="14.00">[cp_1]:16</text>
</a>
</g>
</g>
<!-- sent_biology_chapter3_plantkingdom_173&#45;&gt;[cp_1]_16 -->
<g id="edge15" class="edge">
<title>sent_biology_chapter3_plantkingdom_173&#45;&gt;[cp_1]_16</title>
<path fill="none" stroke="black" d="M344.79,-670.7C344.79,-652.21 344.79,-622.03 344.79,-596 344.79,-596 344.79,-596 344.79,-407 344.79,-383.17 344.79,-356.08 344.79,-336.43"/>
<polygon fill="black" stroke="black" points="348.29,-336.35 344.79,-326.35 341.29,-336.35 348.29,-336.35"/>
<text text-anchor="middle" x="354.79" y="-506.1" font-family="Times,serif" font-size="8.00">main</text>
</g>
<!-- sent_biology_chapter3_plantkingdom_174 -->
<g id="node2" class="node">
<title>sent_biology_chapter3_plantkingdom_174</title>
<ellipse fill="lightblue" stroke="blue" cx="819.79" cy="-689" rx="226.36" ry="18"/>
<text text-anchor="middle" x="819.79" y="-685.3" font-family="Times,serif" font-size="14.00">Sentence biology_chapter3_plantkingdom_174</text>
</g>
<!-- [cp_2]_21 -->
<g id="node3" class="node">
<title>[cp_2]_21</title>
<g id="a_node3"><a xlink:title="semCat: &#45;&#10;morphSem: &#45;&#10;speakersView: &#45;&#10;Additional Info: &#45;">
<polygon fill="none" stroke="black" points="860.79,-613 778.79,-613 778.79,-577 860.79,-577 860.79,-613"/>
<text text-anchor="middle" x="819.79" y="-591.3" font-family="Times,serif" font-size="14.00">[cp_2]:21</text>
</a>
</g>
</g>
<!-- sent_biology_chapter3_plantkingdom_174&#45;&gt;[cp_2]_21 -->
<g id="edge1" class="edge">
<title>sent_biology_chapter3_plantkingdom_174&#45;&gt;[cp_2]_21</title>
<path fill="none" stroke="black" d="M819.79,-670.7C819.79,-657.46 819.79,-638.95 819.79,-623.66"/>
<polygon fill="black" stroke="black" points="823.29,-623.23 819.79,-613.23 816.29,-623.23 823.29,-623.23"/>
<text text-anchor="middle" x="829.79" y="-646.6" font-family="Times,serif" font-size="8.00">main</text>
</g>
<!-- maxaxa_1_16 -->
<g id="node12" class="node">
<title>maxaxa_1_16</title>
<g id="a_node12"><a xlink:title="semCat: &#45;&#10;morphSem: &#45;&#10;speakersView: &#45;&#10;Additional Info: &#45;">
<ellipse fill="none" stroke="black" cx="999.79" cy="-508" rx="71.49" ry="18"/>
<text text-anchor="middle" x="999.79" y="-504.3" font-family="Times,serif" font-size="14.00">maxaxa_1:16</text>
</a>
</g>
</g>
<!-- [cp_2]_21&#45;&gt;maxaxa_1_16 -->
<g id="edge10" class="edge">
<title>[cp_2]_21&#45;&gt;maxaxa_1_16</title>
<path fill="none" stroke="black" d="M856.22,-576.8C885.83,-562.82 927.59,-543.1 958.45,-528.53"/>
<polygon fill="black" stroke="black" points="960.1,-531.62 967.65,-524.18 957.11,-525.29 960.1,-531.62"/>
<text text-anchor="middle" x="957.79" y="-547.8" font-family="Times,serif" font-size="14.00" fill="blue">kriyAmUla</text>
</g>
<!-- kara_1&#45;wA_hE_1_17 -->
<g id="node13" class="node">
<title>kara_1&#45;wA_hE_1_17</title>
<g id="a_node13"><a xlink:title="semCat: &#45;&#10;morphSem: &#45;&#10;speakersView: &#45;&#10;Additional Info: &#45;">
<ellipse fill="none" stroke="black" cx="809.79" cy="-508" rx="100.98" ry="18"/>
<text text-anchor="middle" x="809.79" y="-504.3" font-family="Times,serif" font-size="14.00">kara_1&#45;wA_hE_1:17</text>
</a>
</g>
</g>
<!-- [cp_2]_21&#45;&gt;kara_1&#45;wA_hE_1_17 -->
<g id="edge11" class="edge">
<title>[cp_2]_21&#45;&gt;kara_1&#45;wA_hE_1_17</title>
<path fill="none" stroke="black" d="M817.77,-576.8C816.4,-565.16 814.57,-549.55 813,-536.24"/>
<polygon fill="black" stroke="black" points="816.46,-535.7 811.82,-526.18 809.51,-536.52 816.46,-535.7"/>
<text text-anchor="middle" x="851.29" y="-547.8" font-family="Times,serif" font-size="14.00" fill="blue">verbalizer</text>
</g>
<!-- $wyax_1 -->
<g id="node4" class="node">
<title>$wyax_1</title>
<g id="a_node4"><a xlink:title="semCat: &#45;&#10;morphSem: &#45;&#10;speakersView: distal&#10;Additional Info: biology_chapter3_plantkingdom_173.4:coref">
<ellipse fill="none" stroke="black" cx="638.79" cy="-221" rx="49.29" ry="18"/>
<text text-anchor="middle" x="638.79" y="-217.3" font-family="Times,serif" font-size="14.00">$wyax:1</text>
</a>
</g>
</g>
<!-- suI_1_4 -->
<g id="node16" class="node">
<title>suI_1_4</title>
<g id="a_node16"><a xlink:title="semCat: &#45;&#10;morphSem: &#45;&#10;speakersView: &#45;&#10;Additional Info: &#45;">
<ellipse fill="none" stroke="black" cx="634.79" cy="-121" rx="44.39" ry="18"/>
<text text-anchor="middle" x="634.79" y="-117.3" font-family="Times,serif" font-size="14.00">suI_1:4</text>
</a>
</g>
</g>
<!-- $wyax_1&#45;&gt;suI_1_4 -->
<g id="edge14" class="edge">
<title>$wyax_1&#45;&gt;suI_1_4</title>
<path fill="none" stroke="red" d="M638.1,-202.93C637.49,-188.12 636.61,-166.43 635.91,-149.23"/>
<polygon fill="red" stroke="red" points="639.4,-149.05 635.5,-139.2 632.41,-149.34 639.4,-149.05"/>
<text text-anchor="middle" x="655.29" y="-173.8" font-family="Times,serif" font-size="14.00" fill="red">coref</text>
</g>
<!-- motA_1_2 -->
<g id="node5" class="node">
<title>motA_1_2</title>
<g id="a_node5"><a xlink:title="semCat: &#45;&#10;morphSem: &#45;&#10;speakersView: &#45;&#10;Additional Info: &#45;">
<ellipse fill="none" stroke="black" cx="517.79" cy="-221" rx="53.89" ry="18"/>
<text text-anchor="middle" x="517.79" y="-217.3" font-family="Times,serif" font-size="14.00">motA_1:2</text>
</a>
</g>
</g>
<!-- kyUtikala_1_3 -->
<g id="node6" class="node">
<title>kyUtikala_1_3</title>
<g id="a_node6"><a xlink:title="semCat: &#45;&#10;morphSem: &#45;&#10;speakersView: &#45;&#10;Additional Info: &#45;">
<ellipse fill="none" stroke="black" cx="609.79" cy="-308" rx="74.19" ry="18"/>
<text text-anchor="middle" x="609.79" y="-304.3" font-family="Times,serif" font-size="14.00">kyUtikala_1:3</text>
</a>
</g>
</g>
<!-- kyUtikala_1_3&#45;&gt;$wyax_1 -->
<g id="edge2" class="edge">
<title>kyUtikala_1_3&#45;&gt;$wyax_1</title>
<path fill="none" stroke="black" d="M615.66,-289.8C619.7,-277.97 625.14,-262.03 629.73,-248.58"/>
<polygon fill="black" stroke="black" points="633.12,-249.48 633.03,-238.89 626.49,-247.22 633.12,-249.48"/>
<text text-anchor="middle" x="633.79" y="-260.8" font-family="Times,serif" font-size="14.00" fill="blue">r6</text>
</g>
<!-- kyUtikala_1_3&#45;&gt;motA_1_2 -->
<g id="edge3" class="edge">
<title>kyUtikala_1_3&#45;&gt;motA_1_2</title>
<path fill="none" stroke="black" d="M591.62,-290.21C577.71,-277.35 558.35,-259.47 542.95,-245.24"/>
<polygon fill="black" stroke="black" points="545.03,-242.4 535.31,-238.18 540.28,-247.54 545.03,-242.4"/>
<text text-anchor="middle" x="584.29" y="-260.8" font-family="Times,serif" font-size="14.00" fill="blue">mod</text>
</g>
<!-- Xazsa_1_5 -->
<g id="node7" class="node">
<title>Xazsa_1_5</title>
<g id="a_node7"><a xlink:title="semCat: &#45;&#10;morphSem: &#45;&#10;speakersView: &#45;&#10;Additional Info: &#45;">
<ellipse fill="none" stroke="black" cx="766.79" cy="-221" rx="56.59" ry="18"/>
<text text-anchor="middle" x="766.79" y="-217.3" font-family="Times,serif" font-size="14.00">Xazsa_1:5</text>
</a>
</g>
</g>
<!-- raMXra_1_7 -->
<g id="node8" class="node">
<title>raMXra_1_7</title>
<g id="a_node8"><a xlink:title="semCat: &#45;&#10;morphSem: &#45;&#10;speakersView: &#45;&#10;Additional Info: &#45;">
<ellipse fill="none" stroke="black" cx="766.79" cy="-308" rx="64.99" ry="18"/>
<text text-anchor="middle" x="766.79" y="-304.3" font-family="Times,serif" font-size="14.00">raMXra_1:7</text>
</a>
</g>
</g>
<!-- raMXra_1_7&#45;&gt;Xazsa_1_5 -->
<g id="edge5" class="edge">
<title>raMXra_1_7&#45;&gt;Xazsa_1_5</title>
<path fill="none" stroke="black" d="M766.79,-289.8C766.79,-278.16 766.79,-262.55 766.79,-249.24"/>
<polygon fill="black" stroke="black" points="770.29,-249.18 766.79,-239.18 763.29,-249.18 770.29,-249.18"/>
<text text-anchor="middle" x="782.29" y="-260.8" font-family="Times,serif" font-size="14.00" fill="blue">rvks</text>
</g>
<!-- pAnI_1_9 -->
<g id="node9" class="node">
<title>pAnI_1_9</title>
<g id="a_node9"><a xlink:title="semCat: &#45;&#10;morphSem: &#45;&#10;speakersView: &#45;&#10;Additional Info: &#45;">
<ellipse fill="none" stroke="black" cx="911.79" cy="-121" rx="51.19" ry="18"/>
<text text-anchor="middle" x="911.79" y="-117.3" font-family="Times,serif" font-size="14.00">pAnI_1:9</text>
</a>
</g>
</g>
<!-- kamI_1_11 -->
<g id="node10" class="node">
<title>kamI_1_11</title>
<g id="a_node10"><a xlink:title="semCat: &#45;&#10;morphSem: &#45;&#10;speakersView: &#45;&#10;Additional Info: &#45;">
<ellipse fill="none" stroke="black" cx="911.79" cy="-221" rx="58.49" ry="18"/>
<text text-anchor="middle" x="911.79" y="-217.3" font-family="Times,serif" font-size="14.00">kamI_1:11</text>
</a>
</g>
</g>
<!-- kamI_1_11&#45;&gt;pAnI_1_9 -->
<g id="edge7" class="edge">
<title>kamI_1_11&#45;&gt;pAnI_1_9</title>
<path fill="none" stroke="black" d="M911.79,-202.93C911.79,-188.12 911.79,-166.43 911.79,-149.23"/>
<polygon fill="black" stroke="black" points="915.29,-149.2 911.79,-139.2 908.29,-149.2 915.29,-149.2"/>
<text text-anchor="middle" x="919.79" y="-173.8" font-family="Times,serif" font-size="14.00" fill="blue">r6</text>
</g>
<!-- kara_1_14 -->
<g id="node11" class="node">
<title>kara_1_14</title>
<g id="a_node11"><a xlink:title="semCat: &#45;&#10;morphSem: &#45;&#10;speakersView: &#45;&#10;Additional Info: &#45;">
<ellipse fill="none" stroke="black" cx="911.79" cy="-308" rx="55.79" ry="18"/>
<text text-anchor="middle" x="911.79" y="-304.3" font-family="Times,serif" font-size="14.00">kara_1:14</text>
</a>
</g>
</g>
<!-- kara_1_14&#45;&gt;kamI_1_11 -->
<g id="edge8" class="edge">
<title>kara_1_14&#45;&gt;kamI_1_11</title>
<path fill="none" stroke="black" d="M911.79,-289.8C911.79,-278.16 911.79,-262.55 911.79,-249.24"/>
<polygon fill="black" stroke="black" points="915.29,-249.18 911.79,-239.18 908.29,-249.18 915.29,-249.18"/>
<text text-anchor="middle" x="920.79" y="-260.8" font-family="Times,serif" font-size="14.00" fill="blue">k2</text>
</g>
<!-- [cp_1]_20 -->
<g id="node14" class="node">
<title>[cp_1]_20</title>
<g id="a_node14"><a xlink:title="semCat: &#45;&#10;morphSem: &#45;&#10;speakersView: &#45;&#10;Additional Info: &#45;">
<polygon fill="none" stroke="black" points="937.79,-426 855.79,-426 855.79,-390 937.79,-390 937.79,-426"/>
<text text-anchor="middle" x="896.79" y="-404.3" font-family="Times,serif" font-size="14.00">[cp_1]:20</text>
</a>
</g>
</g>
<!-- kara_1&#45;wA_hE_1_17&#45;&gt;[cp_1]_20 -->
<g id="edge12" class="edge">
<title>kara_1&#45;wA_hE_1_17&#45;&gt;[cp_1]_20</title>
<path fill="none" stroke="black" d="M824.95,-489.93C838.71,-474.43 859.18,-451.37 874.75,-433.83"/>
<polygon fill="black" stroke="black" points="877.5,-436.01 881.52,-426.2 872.27,-431.36 877.5,-436.01"/>
<text text-anchor="middle" x="861.79" y="-460.8" font-family="Times,serif" font-size="14.00" fill="blue">k7</text>
</g>
<!-- [conj_1]_22 -->
<g id="node15" class="node">
<title>[conj_1]_22</title>
<g id="a_node15"><a xlink:title="semCat: &#45;&#10;morphSem: &#45;&#10;speakersView: &#45;&#10;Additional Info: &#45;">
<polygon fill="none" stroke="black" points="814.29,-426 719.29,-426 719.29,-390 814.29,-390 814.29,-426"/>
<text text-anchor="middle" x="766.79" y="-404.3" font-family="Times,serif" font-size="14.00">[conj_1]:22</text>
</a>
</g>
</g>
<!-- kara_1&#45;wA_hE_1_17&#45;&gt;[conj_1]_22 -->
<g id="edge13" class="edge">
<title>kara_1&#45;wA_hE_1_17&#45;&gt;[conj_1]_22</title>
<path fill="none" stroke="black" d="M791.66,-490.21C786.8,-484.83 782.02,-478.56 778.79,-472 773.35,-460.91 770.37,-447.59 768.74,-436.06"/>
<polygon fill="black" stroke="black" points="772.21,-435.62 767.59,-426.09 765.26,-436.42 772.21,-435.62"/>
<text text-anchor="middle" x="787.79" y="-460.8" font-family="Times,serif" font-size="14.00" fill="blue">k1</text>
</g>
<!-- [cp_1]_20&#45;&gt;kara_1_14 -->
<g id="edge9" class="edge">
<title>[cp_1]_20&#45;&gt;kara_1_14</title>
<path fill="none" stroke="black" d="M899.41,-389.93C901.67,-375.12 904.99,-353.43 907.63,-336.23"/>
<polygon fill="black" stroke="black" points="911.11,-336.62 909.16,-326.2 904.19,-335.56 911.11,-336.62"/>
<text text-anchor="middle" x="940.29" y="-360.8" font-family="Times,serif" font-size="14.00" fill="blue">verbalizer</text>
</g>
<!-- [conj_1]_22&#45;&gt;kyUtikala_1_3 -->
<g id="edge4" class="edge">
<title>[conj_1]_22&#45;&gt;kyUtikala_1_3</title>
<path fill="none" stroke="black" d="M739.45,-389.93C713.05,-373.45 672.98,-348.44 644.38,-330.59"/>
<polygon fill="black" stroke="black" points="645.86,-327.39 635.53,-325.06 642.16,-333.33 645.86,-327.39"/>
<text text-anchor="middle" x="720.29" y="-360.8" font-family="Times,serif" font-size="14.00" fill="blue">op1</text>
</g>
<!-- [conj_1]_22&#45;&gt;raMXra_1_7 -->
<g id="edge6" class="edge">
<title>[conj_1]_22&#45;&gt;raMXra_1_7</title>
<path fill="none" stroke="black" d="M766.79,-389.93C766.79,-375.12 766.79,-353.43 766.79,-336.23"/>
<polygon fill="black" stroke="black" points="770.29,-336.2 766.79,-326.2 763.29,-336.2 770.29,-336.2"/>
<text text-anchor="middle" x="780.29" y="-360.8" font-family="Times,serif" font-size="14.00" fill="blue">op2</text>
</g>
<!-- kara_1&#45;wA_hE_1_11 -->
<g id="node22" class="node">
<title>kara_1&#45;wA_hE_1_11</title>
<g id="a_node22"><a xlink:title="semCat: &#45;&#10;morphSem: &#45;&#10;speakersView: [shade:xe_1]&#10;Additional Info: &#45;">
<ellipse fill="none" stroke="black" cx="344.79" cy="-221" rx="100.98" ry="18"/>
<text text-anchor="middle" x="344.79" y="-217.3" font-family="Times,serif" font-size="14.00">kara_1&#45;wA_hE_1:11</text>
</a>
</g>
</g>
<!-- [cp_1]_16&#45;&gt;kara_1&#45;wA_hE_1_11 -->
<g id="edge21" class="edge">
<title>[cp_1]_16&#45;&gt;kara_1&#45;wA_hE_1_11</title>
<path fill="none" stroke="black" d="M344.79,-289.8C344.79,-278.16 344.79,-262.55 344.79,-249.24"/>
<polygon fill="black" stroke="black" points="348.29,-249.18 344.79,-239.18 341.29,-249.18 348.29,-249.18"/>
<text text-anchor="middle" x="381.29" y="-260.8" font-family="Times,serif" font-size="14.00" fill="blue">verbalizer</text>
</g>
<!-- koniPZarsa_1 -->
<g id="node18" class="node">
<title>koniPZarsa_1</title>
<g id="a_node18"><a xlink:title="semCat: &#45;&#10;morphSem: &#45;&#10;speakersView: &#45;&#10;Additional Info: &#45;">
<ellipse fill="none" stroke="black" cx="498.79" cy="-121" rx="71.49" ry="18"/>
<text text-anchor="middle" x="498.79" y="-117.3" font-family="Times,serif" font-size="14.00">koniPZarsa:1</text>
</a>
</g>
</g>
<!-- pawwI_1_6 -->
<g id="node19" class="node">
<title>pawwI_1_6</title>
<g id="a_node19"><a xlink:title="semCat: &#45;&#10;morphSem: &#45;&#10;speakersView: &#45;&#10;Additional Info: &#45;">
<ellipse fill="none" stroke="black" cx="59.79" cy="-121" rx="59.59" ry="18"/>
<text text-anchor="middle" x="59.79" y="-117.3" font-family="Times,serif" font-size="14.00">pawwI_1:6</text>
</a>
</g>
</g>
<!-- sawaha_1_7 -->
<g id="node20" class="node">
<title>sawaha_1_7</title>
<g id="a_node20"><a xlink:title="semCat: &#45;&#10;morphSem: &#45;&#10;speakersView: &#45;&#10;Additional Info: &#45;">
<ellipse fill="none" stroke="black" cx="199.79" cy="-34" rx="64.19" ry="18"/>
<text text-anchor="middle" x="199.79" y="-30.3" font-family="Times,serif" font-size="14.00">sawaha_1:7</text>
</a>
</g>
</g>
<!-- kRewra_1_8 -->
<g id="node21" class="node">
<title>kRewra_1_8</title>
<g id="a_node21"><a xlink:title="semCat: &#45;&#10;morphSem: &#45;&#10;speakersView: &#45;&#10;Additional Info: &#45;">
<ellipse fill="none" stroke="black" cx="346.79" cy="-34" rx="64.99" ry="18"/>
<text text-anchor="middle" x="346.79" y="-30.3" font-family="Times,serif" font-size="14.00">kRewra_1:8</text>
</a>
</g>
</g>
<!-- kara_1&#45;wA_hE_1_11&#45;&gt;suI_1_4 -->
<g id="edge17" class="edge">
<title>kara_1&#45;wA_hE_1_11&#45;&gt;suI_1_4</title>
<path fill="none" stroke="black" d="M404.51,-206.43C468.46,-191.7 562.95,-169.3 578.79,-162 589.16,-157.23 599.58,-150.45 608.58,-143.83"/>
<polygon fill="black" stroke="black" points="610.9,-146.45 616.72,-137.6 606.65,-140.9 610.9,-146.45"/>
<text text-anchor="middle" x="557.79" y="-173.8" font-family="Times,serif" font-size="14.00" fill="blue">ru</text>
</g>
<!-- kara_1&#45;wA_hE_1_11&#45;&gt;koniPZarsa_1 -->
<g id="edge16" class="edge">
<title>kara_1&#45;wA_hE_1_11&#45;&gt;koniPZarsa_1</title>
<path fill="none" stroke="black" d="M370.57,-203.6C396.45,-187.13 436.47,-161.66 464.91,-143.56"/>
<polygon fill="black" stroke="black" points="467.14,-146.29 473.7,-137.97 463.39,-140.38 467.14,-146.29"/>
<text text-anchor="middle" x="435.29" y="-173.8" font-family="Times,serif" font-size="14.00" fill="blue">k7p</text>
</g>
<!-- kara_1&#45;wA_hE_1_11&#45;&gt;pawwI_1_6 -->
<g id="edge18" class="edge">
<title>kara_1&#45;wA_hE_1_11&#45;&gt;pawwI_1_6</title>
<path fill="none" stroke="black" d="M276.79,-207.71C232.16,-198.31 173.14,-183.31 123.79,-162 112.26,-157.02 100.38,-150.16 90.04,-143.52"/>
<polygon fill="black" stroke="black" points="91.67,-140.4 81.4,-137.8 87.81,-146.24 91.67,-140.4"/>
<text text-anchor="middle" x="191.79" y="-173.8" font-family="Times,serif" font-size="14.00" fill="blue">k1</text>
</g>
<!-- [nc_1]_15 -->
<g id="node23" class="node">
<title>[nc_1]_15</title>
<g id="a_node23"><a xlink:title="semCat: &#45;&#10;morphSem: &#45;&#10;speakersView: &#45;&#10;Additional Info: &#45;">
<polygon fill="none" stroke="black" points="385.79,-139 303.79,-139 303.79,-103 385.79,-103 385.79,-139"/>
<text text-anchor="middle" x="344.79" y="-117.3" font-family="Times,serif" font-size="14.00">[nc_1]:15</text>
</a>
</g>
</g>
<!-- kara_1&#45;wA_hE_1_11&#45;&gt;[nc_1]_15 -->
<g id="edge22" class="edge">
<title>kara_1&#45;wA_hE_1_11&#45;&gt;[nc_1]_15</title>
<path fill="none" stroke="black" d="M344.79,-202.93C344.79,-188.12 344.79,-166.43 344.79,-149.23"/>
<polygon fill="black" stroke="black" points="348.29,-149.2 344.79,-139.2 341.29,-149.2 348.29,-149.2"/>
<text text-anchor="middle" x="353.79" y="-173.8" font-family="Times,serif" font-size="14.00" fill="blue">k2</text>
</g>
<!-- [nc_1]_15&#45;&gt;sawaha_1_7 -->
<g id="edge19" class="edge">
<title>[nc_1]_15&#45;&gt;sawaha_1_7</title>
<path fill="none" stroke="black" d="M315.45,-102.8C292.16,-89.15 259.53,-70.02 234.86,-55.56"/>
<polygon fill="black" stroke="black" points="236.57,-52.5 226.17,-50.46 233.03,-58.54 236.57,-52.5"/>
<text text-anchor="middle" x="297.29" y="-73.8" font-family="Times,serif" font-size="14.00" fill="blue">mod</text>
</g>
<!-- [nc_1]_15&#45;&gt;kRewra_1_8 -->
<g id="edge20" class="edge">
<title>[nc_1]_15&#45;&gt;kRewra_1_8</title>
<path fill="none" stroke="black" d="M345.2,-102.8C345.47,-91.16 345.84,-75.55 346.15,-62.24"/>
<polygon fill="black" stroke="black" points="349.65,-62.26 346.39,-52.18 342.66,-62.09 349.65,-62.26"/>
<text text-anchor="middle" x="364.29" y="-73.8" font-family="Times,serif" font-size="14.00" fill="blue">head</text>
</g>
</g>
</svg>
