<?xml version="1.0" encoding="UTF-8" standalone="no"?>
<!DOCTYPE svg PUBLIC "-//W3C//DTD SVG 1.1//EN"
 "http://www.w3.org/Graphics/SVG/1.1/DTD/svg11.dtd">
<!-- Generated by graphviz version 2.43.0 (0)
 -->
<!-- Title: %3 Pages: 1 -->
<svg width="620pt" height="328pt"
 viewBox="0.00 0.00 620.24 328.00" xmlns="http://www.w3.org/2000/svg" xmlns:xlink="http://www.w3.org/1999/xlink">
<g id="graph0" class="graph" transform="scale(1 1) rotate(0) translate(4 324)">
<title>%3</title>
<polygon fill="white" stroke="transparent" points="-4,4 -4,-324 616.24,-324 616.24,4 -4,4"/>
<g id="clust1" class="cluster">
<title>cluster_[conj_1]_1</title>
<polygon fill="lightgray" stroke="black" stroke-dasharray="5,2" points="8,-8 8,-162 242,-162 242,-8 8,-8"/>
<text text-anchor="middle" x="125" y="-153.2" font-family="Times,serif" font-size="6.00">Construction: [conj_1]:1</text>
</g>
<!-- sent_3 -->
<g id="node1" class="node">
<title>sent_3</title>
<ellipse fill="lightblue" stroke="blue" cx="268" cy="-302" rx="62.29" ry="18"/>
<text text-anchor="middle" x="268" y="-298.3" font-family="Times,serif" font-size="14.00">Sentence 3</text>
</g>
<!-- paDZa_1&#45;wA_hE_1(study_3&#45;pres)_5 -->
<g id="node2" class="node">
<title>paDZa_1&#45;wA_hE_1(study_3&#45;pres)_5</title>
<g id="a_node2"><a xlink:title="semCat: &#45;&#10;morphSem: &#45;&#10;speakersView: &#45;&#10;Additional Info: &#45;">
<ellipse fill="none" stroke="black" cx="268" cy="-221" rx="170.87" ry="18"/>
<text text-anchor="middle" x="268" y="-217.3" font-family="Times,serif" font-size="14.00">paDZa_1&#45;wA_hE_1(study_3&#45;pres):5</text>
</a>
</g>
</g>
<!-- sent_3&#45;&gt;paDZa_1&#45;wA_hE_1(study_3&#45;pres)_5 -->
<g id="edge1" class="edge">
<title>sent_3&#45;&gt;paDZa_1&#45;wA_hE_1(study_3&#45;pres)_5</title>
<path fill="none" stroke="black" d="M268,-283.86C268,-273.71 268,-260.63 268,-249.12"/>
<polygon fill="black" stroke="black" points="271.5,-249.11 268,-239.11 264.5,-249.11 271.5,-249.11"/>
<text text-anchor="middle" x="278" y="-259.6" font-family="Times,serif" font-size="8.00">main</text>
</g>
<!-- [conj_1]_1 -->
<g id="node5" class="node">
<title>[conj_1]_1</title>
<g id="a_node5"><a xlink:title="semCat: &#45;&#10;morphSem: &#45;&#10;speakersView: &#45;&#10;Additional Info: &#45;">
<polygon fill="none" stroke="black" points="221,-139 135,-139 135,-103 221,-103 221,-139"/>
<text text-anchor="middle" x="178" y="-117.3" font-family="Times,serif" font-size="14.00">[conj_1]:1</text>
</a>
</g>
</g>
<!-- paDZa_1&#45;wA_hE_1(study_3&#45;pres)_5&#45;&gt;[conj_1]_1 -->
<g id="edge4" class="edge">
<title>paDZa_1&#45;wA_hE_1(study_3&#45;pres)_5&#45;&gt;[conj_1]_1</title>
<path fill="none" stroke="black" d="M252.32,-202.93C238.09,-187.43 216.91,-164.37 200.8,-146.83"/>
<polygon fill="black" stroke="black" points="203.14,-144.2 193.8,-139.2 197.99,-148.94 203.14,-144.2"/>
<text text-anchor="middle" x="243" y="-173.8" font-family="Times,serif" font-size="14.00" fill="blue">k1</text>
</g>
<!-- skUla_1(school_10)_4 -->
<g id="node8" class="node">
<title>skUla_1(school_10)_4</title>
<g id="a_node8"><a xlink:title="semCat: &#45;&#10;morphSem: &#45;&#10;speakersView: &#45;&#10;Additional Info: &#45;">
<ellipse fill="none" stroke="black" cx="359" cy="-121" rx="108.58" ry="18"/>
<text text-anchor="middle" x="359" y="-117.3" font-family="Times,serif" font-size="14.00">skUla_1(school_10):4</text>
</a>
</g>
</g>
<!-- paDZa_1&#45;wA_hE_1(study_3&#45;pres)_5&#45;&gt;skUla_1(school_10)_4 -->
<g id="edge7" class="edge">
<title>paDZa_1&#45;wA_hE_1(study_3&#45;pres)_5&#45;&gt;skUla_1(school_10)_4</title>
<path fill="none" stroke="black" d="M283.85,-202.93C298.34,-187.33 319.92,-164.09 336.24,-146.51"/>
<polygon fill="black" stroke="black" points="339.09,-148.58 343.33,-138.87 333.96,-143.82 339.09,-148.58"/>
<text text-anchor="middle" x="326.5" y="-173.8" font-family="Times,serif" font-size="14.00" fill="blue">k7p</text>
</g>
<!-- rAma_6 -->
<g id="node3" class="node">
<title>rAma_6</title>
<g id="a_node3"><a xlink:title="semCat: per/male&#10;morphSem: &#45;&#10;speakersView: &#45;&#10;Additional Info: &#45;">
<ellipse fill="none" stroke="black" cx="60" cy="-34" rx="44.39" ry="18"/>
<text text-anchor="middle" x="60" y="-30.3" font-family="Times,serif" font-size="14.00">rAma:6</text>
</a>
</g>
</g>
<!-- mohana_7 -->
<g id="node4" class="node">
<title>mohana_7</title>
<g id="a_node4"><a xlink:title="semCat: per/male&#10;morphSem: &#45;&#10;speakersView: &#45;&#10;Additional Info: &#45;">
<ellipse fill="none" stroke="black" cx="178" cy="-34" rx="55.79" ry="18"/>
<text text-anchor="middle" x="178" y="-30.3" font-family="Times,serif" font-size="14.00">mohana:7</text>
</a>
</g>
</g>
<!-- [conj_1]_1&#45;&gt;rAma_6 -->
<g id="edge2" class="edge">
<title>[conj_1]_1&#45;&gt;rAma_6</title>
<path fill="none" stroke="black" d="M154.12,-102.8C135.38,-89.3 109.21,-70.45 89.22,-56.05"/>
<polygon fill="black" stroke="black" points="91.23,-53.19 81.07,-50.18 87.14,-58.87 91.23,-53.19"/>
<text text-anchor="middle" x="140.5" y="-73.8" font-family="Times,serif" font-size="14.00" fill="blue">op1</text>
</g>
<!-- [conj_1]_1&#45;&gt;mohana_7 -->
<g id="edge3" class="edge">
<title>[conj_1]_1&#45;&gt;mohana_7</title>
<path fill="none" stroke="black" d="M178,-102.8C178,-91.16 178,-75.55 178,-62.24"/>
<polygon fill="black" stroke="black" points="181.5,-62.18 178,-52.18 174.5,-62.18 181.5,-62.18"/>
<text text-anchor="middle" x="191.5" y="-73.8" font-family="Times,serif" font-size="14.00" fill="blue">op2</text>
</g>
<!-- pAsa_1(nearby_1)_2 -->
<g id="node6" class="node">
<title>pAsa_1(nearby_1)_2</title>
<g id="a_node6"><a xlink:title="semCat: &#45;&#10;morphSem: &#45;&#10;speakersView: &#45;&#10;Additional Info: &#45;">
<ellipse fill="none" stroke="black" cx="356" cy="-34" rx="101.28" ry="18"/>
<text text-anchor="middle" x="356" y="-30.3" font-family="Times,serif" font-size="14.00">pAsa_1(nearby_1):2</text>
</a>
</g>
</g>
<!-- eka_1(a_2)_3 -->
<g id="node7" class="node">
<title>eka_1(a_2)_3</title>
<g id="a_node7"><a xlink:title="semCat: &#45;&#10;morphSem: &#45;&#10;speakersView: &#45;&#10;Additional Info: &#45;">
<ellipse fill="none" stroke="black" cx="544" cy="-34" rx="68.49" ry="18"/>
<text text-anchor="middle" x="544" y="-30.3" font-family="Times,serif" font-size="14.00">eka_1(a_2):3</text>
</a>
</g>
</g>
<!-- skUla_1(school_10)_4&#45;&gt;pAsa_1(nearby_1)_2 -->
<g id="edge5" class="edge">
<title>skUla_1(school_10)_4&#45;&gt;pAsa_1(nearby_1)_2</title>
<path fill="none" stroke="black" d="M358.39,-102.8C357.98,-91.16 357.43,-75.55 356.96,-62.24"/>
<polygon fill="black" stroke="black" points="360.46,-62.05 356.61,-52.18 353.46,-62.29 360.46,-62.05"/>
<text text-anchor="middle" x="365" y="-73.8" font-family="Times,serif" font-size="14.00" fill="blue">r6</text>
</g>
<!-- skUla_1(school_10)_4&#45;&gt;eka_1(a_2)_3 -->
<g id="edge6" class="edge">
<title>skUla_1(school_10)_4&#45;&gt;eka_1(a_2)_3</title>
<path fill="none" stroke="black" d="M394.23,-103.81C424.96,-89.7 469.58,-69.19 502.12,-54.24"/>
<polygon fill="black" stroke="black" points="503.75,-57.34 511.38,-49.99 500.83,-50.98 503.75,-57.34"/>
<text text-anchor="middle" x="483" y="-73.8" font-family="Times,serif" font-size="14.00" fill="blue">quant</text>
</g>
</g>
</svg>
