<?xml version="1.0" encoding="UTF-8" standalone="no"?>
<!DOCTYPE svg PUBLIC "-//W3C//DTD SVG 1.1//EN"
 "http://www.w3.org/Graphics/SVG/1.1/DTD/svg11.dtd">
<!-- Generated by graphviz version 2.50.0 (0)
 -->
<!-- Pages: 1 -->
<svg width="435pt" height="312pt"
 viewBox="0.00 0.00 434.64 312.00" xmlns="http://www.w3.org/2000/svg" xmlns:xlink="http://www.w3.org/1999/xlink">
<g id="graph0" class="graph" transform="scale(1 1) rotate(0) translate(4 308)">
<polygon fill="white" stroke="transparent" points="-4,4 -4,-308 430.64,-308 430.64,4 -4,4"/>
<g id="clust1" class="cluster">
<title>cluster_[nc_1]_5</title>
<polygon fill="lightgray" stroke="black" stroke-dasharray="5,2" points="8,-79 8,-233 294,-233 294,-79 8,-79"/>
<text text-anchor="middle" x="151" y="-224.2" font-family="Times,serif" font-size="6.00">Construction: [nc_1]_5</text>
</g>
<!-- sent_Test_001INFOSHEET -->
<g id="node1" class="node">
<title>sent_Test_001INFOSHEET</title>
<ellipse fill="lightblue" stroke="blue" cx="226" cy="-286" rx="156.77" ry="18"/>
<text text-anchor="middle" x="226" y="-282.3" font-family="Times,serif" font-size="14.00">Sentence Test_001INFOSHEET</text>
</g>
<!-- [nc_1]_5 -->
<g id="node2" class="node">
<title>[nc_1]_5</title>
<g id="a_node2"><a xlink:title="semCat: &#45;&#10;morphSem: &#45;&#10;speakersView: &#45;&#10;Additional Info: &#45;">
<polygon fill="none" stroke="black" points="263.5,-210 188.5,-210 188.5,-174 263.5,-174 263.5,-210"/>
<text text-anchor="middle" x="226" y="-188.3" font-family="Times,serif" font-size="14.00">[nc_1]_5</text>
</a>
</g>
</g>
<!-- sent_Test_001INFOSHEET&#45;&gt;[nc_1]_5 -->
<g id="edge1" class="edge">
<title>sent_Test_001INFOSHEET&#45;&gt;[nc_1]_5</title>
<path fill="none" stroke="black" d="M226,-267.7C226,-254.46 226,-235.95 226,-220.66"/>
<polygon fill="black" stroke="black" points="229.5,-220.23 226,-210.23 222.5,-220.23 229.5,-220.23"/>
<text text-anchor="middle" x="236" y="-243.6" font-family="Times,serif" font-size="8.00">main</text>
</g>
<!-- xAwA_2_2 -->
<g id="node4" class="node">
<title>xAwA_2_2</title>
<g id="a_node4"><a xlink:title="semCat: anim&#10;morphSem: pl&#10;speakersView: &#45;&#10;Additional Info: &#45;">
<ellipse fill="none" stroke="black" cx="361" cy="-105" rx="57.39" ry="18"/>
<text text-anchor="middle" x="361" y="-101.3" font-family="Times,serif" font-size="14.00">xAwA_2_2</text>
</a>
</g>
</g>
<!-- [nc_1]_5&#45;&gt;xAwA_2_2 -->
<g id="edge3" class="edge">
<title>[nc_1]_5&#45;&gt;xAwA_2_2</title>
<path fill="none" stroke="black" d="M253.32,-173.8C274.81,-160.27 304.85,-141.35 327.74,-126.94"/>
<polygon fill="black" stroke="black" points="329.85,-129.75 336.44,-121.46 326.12,-123.83 329.85,-129.75"/>
<text text-anchor="middle" x="307.5" y="-144.8" font-family="Times,serif" font-size="14.00" fill="blue">rt</text>
</g>
<!-- sUcanA_1_3 -->
<g id="node5" class="node">
<title>sUcanA_1_3</title>
<g id="a_node5"><a xlink:title="semCat: &#45;&#10;morphSem: &#45;&#10;speakersView: &#45;&#10;Additional Info: &#45;">
<ellipse fill="none" stroke="black" cx="82" cy="-105" rx="66.09" ry="18"/>
<text text-anchor="middle" x="82" y="-101.3" font-family="Times,serif" font-size="14.00">sUcanA_1_3</text>
</a>
</g>
</g>
<!-- [nc_1]_5&#45;&gt;sUcanA_1_3 -->
<g id="edge4" class="edge">
<title>[nc_1]_5&#45;&gt;sUcanA_1_3</title>
<path fill="none" stroke="black" d="M196.86,-173.8C173.88,-160.23 141.73,-141.26 117.29,-126.83"/>
<polygon fill="black" stroke="black" points="119.06,-123.81 108.67,-121.74 115.5,-129.84 119.06,-123.81"/>
<text text-anchor="middle" x="177.5" y="-144.8" font-family="Times,serif" font-size="14.00" fill="blue">mod</text>
</g>
<!-- pawra_1_4 -->
<g id="node6" class="node">
<title>pawra_1_4</title>
<g id="a_node6"><a xlink:title="semCat: &#45;&#10;morphSem: &#45;&#10;speakersView: &#45;&#10;Additional Info: &#45;">
<ellipse fill="none" stroke="black" cx="226" cy="-105" rx="59.59" ry="18"/>
<text text-anchor="middle" x="226" y="-101.3" font-family="Times,serif" font-size="14.00">pawra_1_4</text>
</a>
</g>
</g>
<!-- [nc_1]_5&#45;&gt;pawra_1_4 -->
<g id="edge5" class="edge">
<title>[nc_1]_5&#45;&gt;pawra_1_4</title>
<path fill="none" stroke="black" d="M226,-173.8C226,-162.16 226,-146.55 226,-133.24"/>
<polygon fill="black" stroke="black" points="229.5,-133.18 226,-123.18 222.5,-133.18 229.5,-133.18"/>
<text text-anchor="middle" x="243.5" y="-144.8" font-family="Times,serif" font-size="14.00" fill="blue">head</text>
</g>
<!-- svasWa_1_1 -->
<g id="node3" class="node">
<title>svasWa_1_1</title>
<g id="a_node3"><a xlink:title="semCat: &#45;&#10;morphSem: &#45;&#10;speakersView: &#45;&#10;Additional Info: &#45;">
<ellipse fill="none" stroke="black" cx="361" cy="-18" rx="65.79" ry="18"/>
<text text-anchor="middle" x="361" y="-14.3" font-family="Times,serif" font-size="14.00">svasWa_1_1</text>
</a>
</g>
</g>
<!-- xAwA_2_2&#45;&gt;svasWa_1_1 -->
<g id="edge2" class="edge">
<title>xAwA_2_2&#45;&gt;svasWa_1_1</title>
<path fill="none" stroke="black" d="M361,-86.8C361,-75.16 361,-59.55 361,-46.24"/>
<polygon fill="black" stroke="black" points="364.5,-46.18 361,-36.18 357.5,-46.18 364.5,-46.18"/>
<text text-anchor="middle" x="376.5" y="-57.8" font-family="Times,serif" font-size="14.00" fill="blue">mod</text>
</g>
</g>
</svg>
