<?xml version="1.0" encoding="UTF-8" standalone="no"?>
<!DOCTYPE svg PUBLIC "-//W3C//DTD SVG 1.1//EN"
 "http://www.w3.org/Graphics/SVG/1.1/DTD/svg11.dtd">
<!-- Generated by graphviz version 2.43.0 (0)
 -->
<!-- Title: %3 Pages: 1 -->
<svg width="766pt" height="486pt"
 viewBox="0.00 0.00 766.00 486.00" xmlns="http://www.w3.org/2000/svg" xmlns:xlink="http://www.w3.org/1999/xlink">
<g id="graph0" class="graph" transform="scale(1 1) rotate(0) translate(4 482)">
<title>%3</title>
<polygon fill="white" stroke="transparent" points="-4,4 -4,-482 762,-482 762,4 -4,4"/>
<g id="clust1" class="cluster">
<title>cluster_[nc_1]_4</title>
<polygon fill="lightgray" stroke="black" stroke-dasharray="5,2" points="8,-166 8,-320 270,-320 270,-166 8,-166"/>
<text text-anchor="middle" x="139" y="-311.2" font-family="Times,serif" font-size="6.00">Construction: [nc_1]:4</text>
</g>
<g id="clust2" class="cluster">
<title>cluster_[nc_2]_10</title>
<polygon fill="lightgray" stroke="black" stroke-dasharray="5,2" points="514,-166 514,-320 750,-320 750,-166 514,-166"/>
<text text-anchor="middle" x="632" y="-311.2" font-family="Times,serif" font-size="6.00">Construction: [nc_2]:10</text>
</g>
<!-- sent_biology_chapter3_plantkingdom_027 -->
<g id="node1" class="node">
<title>sent_biology_chapter3_plantkingdom_027</title>
<ellipse fill="lightblue" stroke="blue" cx="402" cy="-460" rx="226.36" ry="18"/>
<text text-anchor="middle" x="402" y="-456.3" font-family="Times,serif" font-size="14.00">Sentence biology_chapter3_plantkingdom_027</text>
</g>
<!-- form_1&#45;es_1_11 -->
<g id="node2" class="node">
<title>form_1&#45;es_1_11</title>
<g id="a_node2"><a xlink:title="semCat: &#45;&#10;morphSem: &#45;&#10;speakersView: &#45;&#10;Additional Info: &#45;">
<ellipse fill="none" stroke="black" cx="402" cy="-379" rx="81.49" ry="18"/>
<text text-anchor="middle" x="402" y="-375.3" font-family="Times,serif" font-size="14.00">form_1&#45;es_1:11</text>
</a>
</g>
</g>
<!-- sent_biology_chapter3_plantkingdom_027&#45;&gt;form_1&#45;es_1_11 -->
<g id="edge1" class="edge">
<title>sent_biology_chapter3_plantkingdom_027&#45;&gt;form_1&#45;es_1_11</title>
<path fill="none" stroke="black" d="M402,-441.86C402,-431.71 402,-418.63 402,-407.12"/>
<polygon fill="black" stroke="black" points="405.5,-407.11 402,-397.11 398.5,-407.11 405.5,-407.11"/>
<text text-anchor="middle" x="412" y="-417.6" font-family="Times,serif" font-size="8.00">main</text>
</g>
<!-- [nc_1]_4 -->
<g id="node6" class="node">
<title>[nc_1]_4</title>
<g id="a_node6"><a xlink:title="semCat: &#45;&#10;morphSem: &#45;&#10;speakersView: &#45;&#10;Additional Info: &#45;">
<polygon fill="none" stroke="black" points="261.5,-297 188.5,-297 188.5,-261 261.5,-261 261.5,-297"/>
<text text-anchor="middle" x="225" y="-275.3" font-family="Times,serif" font-size="14.00">[nc_1]:4</text>
</a>
</g>
</g>
<!-- form_1&#45;es_1_11&#45;&gt;[nc_1]_4 -->
<g id="edge5" class="edge">
<title>form_1&#45;es_1_11&#45;&gt;[nc_1]_4</title>
<path fill="none" stroke="black" d="M373.17,-362.04C343.71,-345.73 297.74,-320.27 264.82,-302.05"/>
<polygon fill="black" stroke="black" points="266.35,-298.89 255.9,-297.11 262.96,-305.02 266.35,-298.89"/>
<text text-anchor="middle" x="344" y="-331.8" font-family="Times,serif" font-size="14.00" fill="blue">k1</text>
</g>
<!-- [nc_2]_10 -->
<g id="node12" class="node">
<title>[nc_2]_10</title>
<g id="a_node12"><a xlink:title="semCat: &#45;&#10;morphSem: &#45;&#10;speakersView: &#45;&#10;Additional Info: &#45;">
<polygon fill="none" stroke="black" points="622,-297 540,-297 540,-261 622,-261 622,-297"/>
<text text-anchor="middle" x="581" y="-275.3" font-family="Times,serif" font-size="14.00">[nc_2]:10</text>
</a>
</g>
</g>
<!-- form_1&#45;es_1_11&#45;&gt;[nc_2]_10 -->
<g id="edge11" class="edge">
<title>form_1&#45;es_1_11&#45;&gt;[nc_2]_10</title>
<path fill="none" stroke="black" d="M431.16,-362.04C460.95,-345.73 507.44,-320.27 540.73,-302.05"/>
<polygon fill="black" stroke="black" points="542.66,-304.98 549.75,-297.11 539.3,-298.84 542.66,-304.98"/>
<text text-anchor="middle" x="501" y="-331.8" font-family="Times,serif" font-size="14.00" fill="blue">k2</text>
</g>
<!-- Few_1_1 -->
<g id="node3" class="node">
<title>Few_1_1</title>
<g id="a_node3"><a xlink:title="semCat: &#45;&#10;morphSem: &#45;&#10;speakersView: &#45;&#10;Additional Info: &#45;">
<ellipse fill="none" stroke="black" cx="329" cy="-192" rx="48.99" ry="18"/>
<text text-anchor="middle" x="329" y="-188.3" font-family="Times,serif" font-size="14.00">Few_1:1</text>
</a>
</g>
</g>
<!-- marine_1_2 -->
<g id="node4" class="node">
<title>marine_1_2</title>
<g id="a_node4"><a xlink:title="semCat: &#45;&#10;morphSem: &#45;&#10;speakersView: &#45;&#10;Additional Info: &#45;">
<ellipse fill="none" stroke="black" cx="78" cy="-192" rx="62.29" ry="18"/>
<text text-anchor="middle" x="78" y="-188.3" font-family="Times,serif" font-size="14.00">marine_1:2</text>
</a>
</g>
</g>
<!-- form_1_3 -->
<g id="node5" class="node">
<title>form_1_3</title>
<g id="a_node5"><a xlink:title="semCat: &#45;&#10;morphSem: &#45;&#10;speakersView: &#45;&#10;Additional Info: &#45;">
<ellipse fill="none" stroke="black" cx="210" cy="-192" rx="51.99" ry="18"/>
<text text-anchor="middle" x="210" y="-188.3" font-family="Times,serif" font-size="14.00">form_1:3</text>
</a>
</g>
</g>
<!-- [nc_1]_4&#45;&gt;Few_1_1 -->
<g id="edge2" class="edge">
<title>[nc_1]_4&#45;&gt;Few_1_1</title>
<path fill="none" stroke="black" d="M246.05,-260.8C262.06,-247.71 284.24,-229.58 301.63,-215.37"/>
<polygon fill="black" stroke="black" points="304.21,-217.78 309.74,-208.74 299.78,-212.36 304.21,-217.78"/>
<text text-anchor="middle" x="305" y="-231.8" font-family="Times,serif" font-size="14.00" fill="blue">quant</text>
</g>
<!-- [nc_1]_4&#45;&gt;marine_1_2 -->
<g id="edge3" class="edge">
<title>[nc_1]_4&#45;&gt;marine_1_2</title>
<path fill="none" stroke="black" d="M195.25,-260.8C171.64,-247.15 138.56,-228.02 113.55,-213.56"/>
<polygon fill="black" stroke="black" points="115.15,-210.44 104.74,-208.46 111.64,-216.5 115.15,-210.44"/>
<text text-anchor="middle" x="176.5" y="-231.8" font-family="Times,serif" font-size="14.00" fill="blue">mod</text>
</g>
<!-- [nc_1]_4&#45;&gt;form_1_3 -->
<g id="edge4" class="edge">
<title>[nc_1]_4&#45;&gt;form_1_3</title>
<path fill="none" stroke="black" d="M221.96,-260.8C219.91,-249.16 217.16,-233.55 214.81,-220.24"/>
<polygon fill="black" stroke="black" points="218.22,-219.41 213.03,-210.18 211.32,-220.63 218.22,-219.41"/>
<text text-anchor="middle" x="236.5" y="-231.8" font-family="Times,serif" font-size="14.00" fill="blue">head</text>
</g>
<!-- kelps_1_5 -->
<g id="node7" class="node">
<title>kelps_1_5</title>
<g id="a_node7"><a xlink:title="semCat: &#45;&#10;morphSem: &#45;&#10;speakersView: &#45;&#10;Additional Info: &#45;">
<ellipse fill="none" stroke="black" cx="450" cy="-192" rx="53.89" ry="18"/>
<text text-anchor="middle" x="450" y="-188.3" font-family="Times,serif" font-size="14.00">kelps_1:5</text>
</a>
</g>
</g>
<!-- [nc_1]_4&#45;&gt;kelps_1_5 -->
<g id="edge6" class="edge">
<title>[nc_1]_4&#45;&gt;kelps_1_5</title>
<path fill="none" stroke="black" d="M261.67,-266.5C281.94,-259.96 307.51,-251.42 330,-243 356.63,-233.03 386.12,-220.76 409.2,-210.87"/>
<polygon fill="black" stroke="black" points="410.87,-213.96 418.67,-206.79 408.1,-207.53 410.87,-213.96"/>
<text text-anchor="middle" x="375" y="-231.8" font-family="Times,serif" font-size="14.00" fill="blue">re</text>
</g>
<!-- very_1_6 -->
<g id="node8" class="node">
<title>very_1_6</title>
<g id="a_node8"><a xlink:title="semCat: &#45;&#10;morphSem: &#45;&#10;speakersView: &#45;&#10;Additional Info: &#45;">
<ellipse fill="none" stroke="black" cx="700" cy="-18" rx="50.09" ry="18"/>
<text text-anchor="middle" x="700" y="-14.3" font-family="Times,serif" font-size="14.00">very_1:6</text>
</a>
</g>
</g>
<!-- large_1_7 -->
<g id="node9" class="node">
<title>large_1_7</title>
<g id="a_node9"><a xlink:title="semCat: &#45;&#10;morphSem: &#45;&#10;speakersView: &#45;&#10;Additional Info: &#45;">
<ellipse fill="none" stroke="black" cx="700" cy="-105" rx="53.89" ry="18"/>
<text text-anchor="middle" x="700" y="-101.3" font-family="Times,serif" font-size="14.00">large_1:7</text>
</a>
</g>
</g>
<!-- large_1_7&#45;&gt;very_1_6 -->
<g id="edge7" class="edge">
<title>large_1_7&#45;&gt;very_1_6</title>
<path fill="none" stroke="black" d="M700,-86.8C700,-75.16 700,-59.55 700,-46.24"/>
<polygon fill="black" stroke="black" points="703.5,-46.18 700,-36.18 696.5,-46.18 703.5,-46.18"/>
<text text-anchor="middle" x="712.5" y="-57.8" font-family="Times,serif" font-size="14.00" fill="blue">intf</text>
</g>
<!-- planet_1_8 -->
<g id="node10" class="node">
<title>planet_1_8</title>
<g id="a_node10"><a xlink:title="semCat: &#45;&#10;morphSem: &#45;&#10;speakersView: &#45;&#10;Additional Info: &#45;">
<ellipse fill="none" stroke="black" cx="581" cy="-192" rx="59.29" ry="18"/>
<text text-anchor="middle" x="581" y="-188.3" font-family="Times,serif" font-size="14.00">planet_1:8</text>
</a>
</g>
</g>
<!-- body_9 -->
<g id="node11" class="node">
<title>body_9</title>
<g id="a_node11"><a xlink:title="semCat: &#45;&#10;morphSem: &#45;&#10;speakersView: &#45;&#10;Additional Info: &#45;">
<ellipse fill="none" stroke="black" cx="700" cy="-192" rx="42.49" ry="18"/>
<text text-anchor="middle" x="700" y="-188.3" font-family="Times,serif" font-size="14.00">body:9</text>
</a>
</g>
</g>
<!-- body_9&#45;&gt;large_1_7 -->
<g id="edge8" class="edge">
<title>body_9&#45;&gt;large_1_7</title>
<path fill="none" stroke="black" d="M700,-173.8C700,-162.16 700,-146.55 700,-133.24"/>
<polygon fill="black" stroke="black" points="703.5,-133.18 700,-123.18 696.5,-133.18 703.5,-133.18"/>
<text text-anchor="middle" x="715.5" y="-144.8" font-family="Times,serif" font-size="14.00" fill="blue">mod</text>
</g>
<!-- [nc_2]_10&#45;&gt;planet_1_8 -->
<g id="edge9" class="edge">
<title>[nc_2]_10&#45;&gt;planet_1_8</title>
<path fill="none" stroke="black" d="M581,-260.8C581,-249.16 581,-233.55 581,-220.24"/>
<polygon fill="black" stroke="black" points="584.5,-220.18 581,-210.18 577.5,-220.18 584.5,-220.18"/>
<text text-anchor="middle" x="596.5" y="-231.8" font-family="Times,serif" font-size="14.00" fill="blue">mod</text>
</g>
<!-- [nc_2]_10&#45;&gt;body_9 -->
<g id="edge10" class="edge">
<title>[nc_2]_10&#45;&gt;body_9</title>
<path fill="none" stroke="black" d="M605.08,-260.8C624.1,-247.22 650.7,-228.21 670.91,-213.78"/>
<polygon fill="black" stroke="black" points="673.03,-216.56 679.14,-207.9 668.96,-210.87 673.03,-216.56"/>
<text text-anchor="middle" x="665.5" y="-231.8" font-family="Times,serif" font-size="14.00" fill="blue">head</text>
</g>
</g>
</svg>
