<?xml version="1.0" encoding="UTF-8" standalone="no"?>
<!DOCTYPE svg PUBLIC "-//W3C//DTD SVG 1.1//EN"
 "http://www.w3.org/Graphics/SVG/1.1/DTD/svg11.dtd">
<!-- Generated by graphviz version 2.50.0 (0)
 -->
<!-- Pages: 1 -->
<svg width="662pt" height="336pt"
 viewBox="0.00 0.00 662.14 336.00" xmlns="http://www.w3.org/2000/svg" xmlns:xlink="http://www.w3.org/1999/xlink">
<g id="graph0" class="graph" transform="scale(1 1) rotate(0) translate(4 332)">
<polygon fill="white" stroke="transparent" points="-4,4 -4,-332 658.14,-332 658.14,4 -4,4"/>
<g id="clust1" class="cluster">
<title>cluster_[ne_1]_12</title>
<polygon fill="lightgray" stroke="black" stroke-dasharray="5,2" points="219.14,-253 219.14,-320 321.14,-320 321.14,-253 219.14,-253"/>
<text text-anchor="middle" x="270.14" y="-311.2" font-family="Times,serif" font-size="6.00">Construction: [ne_1]_12</text>
</g>
<g id="clust2" class="cluster">
<title>cluster_[nc_1]_13</title>
<polygon fill="lightgray" stroke="black" stroke-dasharray="5,2" points="340.14,-166 340.14,-320 646.14,-320 646.14,-166 340.14,-166"/>
<text text-anchor="middle" x="493.14" y="-311.2" font-family="Times,serif" font-size="6.00">Construction: [nc_1]_13</text>
</g>
<!-- sent_Test_025 -->
<g id="node1" class="node">
<title>sent_Test_025</title>
<ellipse fill="lightblue" stroke="blue" cx="98.14" cy="-279" rx="98.28" ry="18"/>
<text text-anchor="middle" x="98.14" y="-275.3" font-family="Times,serif" font-size="14.00">Sentence Test_025</text>
</g>
<!-- cala_1&#45;wA_hE_1_9 -->
<g id="node2" class="node">
<title>cala_1&#45;wA_hE_1_9</title>
<g id="a_node2"><a xlink:title="semCat: &#45;&#10;morphSem: &#45;&#10;speakersView: &#45;&#10;Additional Info: &#45;">
<ellipse fill="none" stroke="black" cx="98.14" cy="-192" rx="94.48" ry="18"/>
<text text-anchor="middle" x="98.14" y="-188.3" font-family="Times,serif" font-size="14.00">cala_1&#45;wA_hE_1_9</text>
</a>
</g>
</g>
<!-- sent_Test_025&#45;&gt;cala_1&#45;wA_hE_1_9 -->
<g id="edge1" class="edge">
<title>sent_Test_025&#45;&gt;cala_1&#45;wA_hE_1_9</title>
<path fill="none" stroke="black" d="M98.14,-260.8C98.14,-249.16 98.14,-233.55 98.14,-220.24"/>
<polygon fill="black" stroke="black" points="101.64,-220.18 98.14,-210.18 94.64,-220.18 101.64,-220.18"/>
<text text-anchor="middle" x="108.14" y="-233.6" font-family="Times,serif" font-size="8.00">main</text>
</g>
<!-- sela_1_2 -->
<g id="node4" class="node">
<title>sela_1_2</title>
<g id="a_node4"><a xlink:title="semCat: &#45;&#10;morphSem: &#45;&#10;speakersView: &#45;&#10;Additional Info: &#45;">
<ellipse fill="none" stroke="black" cx="78.14" cy="-105" rx="50.09" ry="18"/>
<text text-anchor="middle" x="78.14" y="-101.3" font-family="Times,serif" font-size="14.00">sela_1_2</text>
</a>
</g>
</g>
<!-- cala_1&#45;wA_hE_1_9&#45;&gt;sela_1_2 -->
<g id="edge3" class="edge">
<title>cala_1&#45;wA_hE_1_9&#45;&gt;sela_1_2</title>
<path fill="none" stroke="black" d="M94.09,-173.8C91.36,-162.16 87.68,-146.55 84.55,-133.24"/>
<polygon fill="black" stroke="black" points="87.88,-132.11 82.18,-123.18 81.07,-133.71 87.88,-132.11"/>
<text text-anchor="middle" x="99.14" y="-144.8" font-family="Times,serif" font-size="14.00" fill="blue">k1</text>
</g>
<!-- GaMtA_1_7 -->
<g id="node8" class="node">
<title>GaMtA_1_7</title>
<g id="a_node8"><a xlink:title="semCat: &#45;&#10;morphSem: pl&#10;speakersView: &#45;&#10;Additional Info: &#45;">
<ellipse fill="none" stroke="black" cx="210.14" cy="-105" rx="63.89" ry="18"/>
<text text-anchor="middle" x="210.14" y="-101.3" font-family="Times,serif" font-size="14.00">GaMtA_1_7</text>
</a>
</g>
</g>
<!-- cala_1&#45;wA_hE_1_9&#45;&gt;GaMtA_1_7 -->
<g id="edge7" class="edge">
<title>cala_1&#45;wA_hE_1_9&#45;&gt;GaMtA_1_7</title>
<path fill="none" stroke="black" d="M120,-174.41C137.3,-161.28 161.64,-142.81 180.66,-128.37"/>
<polygon fill="black" stroke="black" points="182.87,-131.09 188.72,-122.26 178.63,-125.52 182.87,-131.09"/>
<text text-anchor="middle" x="173.14" y="-144.8" font-family="Times,serif" font-size="14.00" fill="blue">k7t</text>
</g>
<!-- stema_1_1 -->
<g id="node3" class="node">
<title>stema_1_1</title>
<g id="a_node3"><a xlink:title="semCat: &#45;&#10;morphSem: &#45;&#10;speakersView: &#45;&#10;Additional Info: &#45;">
<ellipse fill="none" stroke="black" cx="270.14" cy="-192" rx="59.59" ry="18"/>
<text text-anchor="middle" x="270.14" y="-188.3" font-family="Times,serif" font-size="14.00">stema_1_1</text>
</a>
</g>
</g>
<!-- saMgraha_1_3 -->
<g id="node5" class="node">
<title>saMgraha_1_3</title>
<g id="a_node5"><a xlink:title="semCat: &#45;&#10;morphSem: &#45;&#10;speakersView: &#45;&#10;Additional Info: &#45;">
<ellipse fill="none" stroke="black" cx="425.14" cy="-192" rx="77.19" ry="18"/>
<text text-anchor="middle" x="425.14" y="-188.3" font-family="Times,serif" font-size="14.00">saMgraha_1_3</text>
</a>
</g>
</g>
<!-- sawra_1_4 -->
<g id="node6" class="node">
<title>sawra_1_4</title>
<g id="a_node6"><a xlink:title="semCat: &#45;&#10;morphSem: &#45;&#10;speakersView: &#45;&#10;Additional Info: &#45;">
<ellipse fill="none" stroke="black" cx="579.14" cy="-192" rx="59.29" ry="18"/>
<text text-anchor="middle" x="579.14" y="-188.3" font-family="Times,serif" font-size="14.00">sawra_1_4</text>
</a>
</g>
</g>
<!-- 2&#45;5_6 -->
<g id="node7" class="node">
<title>2&#45;5_6</title>
<g id="a_node7"><a xlink:title="semCat: &#45;&#10;morphSem: &#45;&#10;speakersView: &#45;&#10;Additional Info: &#45;">
<ellipse fill="none" stroke="black" cx="210.14" cy="-18" rx="36" ry="18"/>
<text text-anchor="middle" x="210.14" y="-14.3" font-family="Times,serif" font-size="14.00">2&#45;5_6</text>
</a>
</g>
</g>
<!-- GaMtA_1_7&#45;&gt;2&#45;5_6 -->
<g id="edge6" class="edge">
<title>GaMtA_1_7&#45;&gt;2&#45;5_6</title>
<path fill="none" stroke="black" d="M210.14,-86.8C210.14,-75.16 210.14,-59.55 210.14,-46.24"/>
<polygon fill="black" stroke="black" points="213.64,-46.18 210.14,-36.18 206.64,-46.18 213.64,-46.18"/>
<text text-anchor="middle" x="226.14" y="-57.8" font-family="Times,serif" font-size="14.00" fill="blue">card</text>
</g>
<!-- [ne_1]_12 -->
<g id="node9" class="node">
<title>[ne_1]_12</title>
<g id="a_node9"><a xlink:title="semCat: org&#10;morphSem: &#45;&#10;speakersView: &#45;&#10;Additional Info: &#45;">
<polygon fill="none" stroke="black" points="312.64,-297 227.64,-297 227.64,-261 312.64,-261 312.64,-297"/>
<text text-anchor="middle" x="270.14" y="-275.3" font-family="Times,serif" font-size="14.00">[ne_1]_12</text>
</a>
</g>
</g>
<!-- [ne_1]_12&#45;&gt;stema_1_1 -->
<g id="edge2" class="edge">
<title>[ne_1]_12&#45;&gt;stema_1_1</title>
<path fill="none" stroke="black" d="M270.14,-260.8C270.14,-249.16 270.14,-233.55 270.14,-220.24"/>
<polygon fill="black" stroke="black" points="273.64,-220.18 270.14,-210.18 266.64,-220.18 273.64,-220.18"/>
<text text-anchor="middle" x="290.14" y="-231.8" font-family="Times,serif" font-size="14.00" fill="blue">begin</text>
</g>
<!-- [nc_1]_13 -->
<g id="node10" class="node">
<title>[nc_1]_13</title>
<g id="a_node10"><a xlink:title="semCat: &#45;&#10;morphSem: &#45;&#10;speakersView: &#45;&#10;Additional Info: &#45;">
<polygon fill="none" stroke="black" points="519.14,-297 435.14,-297 435.14,-261 519.14,-261 519.14,-297"/>
<text text-anchor="middle" x="477.14" y="-275.3" font-family="Times,serif" font-size="14.00">[nc_1]_13</text>
</a>
</g>
</g>
<!-- [nc_1]_13&#45;&gt;saMgraha_1_3 -->
<g id="edge4" class="edge">
<title>[nc_1]_13&#45;&gt;saMgraha_1_3</title>
<path fill="none" stroke="black" d="M466.62,-260.8C459.24,-248.74 449.25,-232.4 440.92,-218.79"/>
<polygon fill="black" stroke="black" points="443.68,-216.59 435.47,-209.89 437.7,-220.24 443.68,-216.59"/>
<text text-anchor="middle" x="469.64" y="-231.8" font-family="Times,serif" font-size="14.00" fill="blue">mod</text>
</g>
<!-- [nc_1]_13&#45;&gt;sawra_1_4 -->
<g id="edge5" class="edge">
<title>[nc_1]_13&#45;&gt;sawra_1_4</title>
<path fill="none" stroke="black" d="M497.78,-260.8C513.39,-247.79 534.96,-229.81 551.97,-215.64"/>
<polygon fill="black" stroke="black" points="554.47,-218.12 559.91,-209.03 549.99,-212.74 554.47,-218.12"/>
<text text-anchor="middle" x="551.64" y="-231.8" font-family="Times,serif" font-size="14.00" fill="blue">head</text>
</g>
</g>
</svg>
